<svg width="133" height="150" viewBox="0 0 133 150" fill="none" xmlns="http://www.w3.org/2000/svg">
<path d="M105.69 147.286C101.273 142.317 98.4571 128.098 98.6032 126.537C99.2781 119.45 107.969 112.449 112.716 107.271C120.032 99.293 130.676 83.7311 130.068 62.0922C129.563 50.5172 125.902 39.3008 119.481 29.6568C104.795 8.05606 88.2275 4.33728 78.0153 3.07589C68.2057 1.98785 58.2773 3.18184 49.0054 6.56462C30.3374 13.0798 21.7671 26.2978 20.304 29.2414C17.1183 35.6465 15.4241 40.3879 14.9422 48.7086C14.5023 52.291 14.3732 55.9048 14.5563 59.5095C14.3132 67.7069 14.0112 79.0791 6.51041 83.1424C4.9959 83.8914 3.77243 85.1214 3.03148 86.6398C1.23696 90.7206 4.75295 92.55 6.93232 94.8994C8.30135 96.4142 9.28031 98.2401 9.78436 100.219C10.0378 104.193 10.5955 108.141 11.4524 112.03C12.0046 114.772 12.9029 117.433 14.1257 119.949C15.8603 123.614 18.9501 126.462 22.7439 127.894C28.9506 130.164 37.4435 130.971 42.9415 129.482C43.5817 129.313 44.2614 129.382 44.8539 129.678C45.4463 129.973 45.9109 130.474 46.161 131.087C46.2417 131.293 49.689 140.257 49.4895 147.283L105.69 147.286Z" fill="white"/>
<path d="M107.541 145.436C106.853 144.549 106.257 143.593 105.765 142.583C105.183 141.415 104.675 140.21 104.245 138.978C103.288 136.278 102.504 133.519 101.898 130.719C101.666 129.666 101.477 128.609 101.291 127.546C101.197 127.008 101.298 127.662 101.291 127.558C101.276 127.418 101.252 127.278 101.245 127.138C101.226 126.94 101.219 126.741 101.223 126.543C101.441 123.537 103.84 120.556 105.713 118.356C109.718 113.663 114.434 109.667 118.227 104.782C122.1 99.8261 125.298 94.3786 127.737 88.5818C134.088 73.3756 134.275 56.2958 128.26 40.954C122.777 26.9805 112.421 14.0875 99.1178 6.86688C88.4914 1.28948 76.4355 -0.969926 64.5106 0.381107C49.6867 1.98593 35.1692 8.09121 24.7793 18.9739C22.2002 21.5566 19.9816 24.4757 18.1835 27.6521C14.8904 33.7891 12.9219 40.5488 12.4052 47.4943C12.2428 49.6355 11.9822 51.7647 11.9037 53.9147C11.8274 56.0035 11.98 58.0924 11.9179 60.178C11.8932 63.2993 11.6715 66.416 11.254 69.5093C10.9128 72.4828 9.94441 75.3501 8.41282 77.9215C6.63029 80.634 3.26911 81.5193 1.39173 84.2449C0.33958 85.7344 -0.141568 87.5527 0.0361824 89.3676C0.213933 91.1825 1.03872 92.8729 2.35986 94.13C4.49344 96.4064 6.9868 98.1944 7.255 101.544C7.90041 109.619 9.18361 118.778 14.5127 125.212C19.277 130.964 27.5464 132.503 34.6361 132.828C36.4354 132.919 38.2392 132.864 40.0295 132.662C41.244 132.519 42.5621 132.17 43.7232 132.072C43.7079 132.072 43.5782 131.636 43.7821 132.189C43.9282 132.58 44.0655 132.976 44.1996 133.372C44.6241 134.623 45.01 135.885 45.3574 137.16C46.3412 140.451 46.8507 143.865 46.8707 147.299C46.8085 150.668 52.0417 150.668 52.1038 147.299C52.0562 141.524 50.9026 135.81 48.7056 130.468C48.4154 129.64 47.9332 128.892 47.2984 128.285C46.6636 127.679 45.8942 127.232 45.0533 126.98C43.2795 126.49 41.5842 127.238 39.8343 127.453C36.2094 127.843 32.5455 127.66 28.9778 126.908C25.9383 126.306 22.7254 125.556 20.2778 123.588C17.5586 121.18 15.6399 117.998 14.7787 114.469C13.6601 110.552 12.9204 106.536 12.5699 102.477C12.4912 100.664 12.1144 98.8763 11.4546 97.1859C10.6943 95.4192 9.59201 93.8204 8.21113 92.4816C6.38281 90.6979 3.88182 89.2381 6.03067 86.7731C7.09691 85.5477 8.77478 84.9197 10.0296 83.8927C11.2042 82.9023 12.2159 81.7335 13.0278 80.4291C16.474 75.0466 16.8741 68.0942 17.1009 61.8897C17.2437 57.9518 17.0038 54.0324 17.4039 50.0989C17.6328 46.4676 18.1774 42.8631 19.0317 39.3263C20.1829 35.0488 22.0567 30.9995 24.5722 27.3534C24.8088 27.0263 25.053 26.6927 25.2972 26.3656C25.3577 26.2719 25.4263 26.1836 25.5022 26.1018C25.6755 25.8838 25.8478 25.6657 26.0233 25.4575C26.7501 24.5751 27.5049 23.7193 28.2877 22.89C30.1525 20.9059 32.1702 19.0712 34.3221 17.4029C40.1618 12.9838 46.7886 9.71536 53.8492 7.77178C61.8888 5.41347 70.327 4.73071 78.6411 5.76575C78.1636 5.70361 78.5637 5.75485 78.7959 5.78865C79.0281 5.82244 79.232 5.85079 79.45 5.88459C79.9777 5.96381 80.5046 6.04921 81.0309 6.14079C82.0753 6.32395 83.1146 6.534 84.1489 6.77094C86.4741 7.30513 88.7602 7.99721 90.9912 8.84238C103.391 13.5554 113.886 24.1797 120.218 35.9193C124.022 42.9056 126.373 50.5892 127.13 58.5077C127.888 66.4263 127.035 74.4162 124.625 81.9968C122.683 87.9222 119.878 93.5291 116.302 98.637C113.036 103.037 109.406 107.154 105.45 110.945C102.805 113.501 100.463 116.355 98.4724 119.448C97.1172 121.692 95.785 124.584 96.0324 127.275C96.5898 132.322 97.8606 137.264 99.8068 141.953C100.742 144.559 102.109 146.99 103.849 149.143C106.057 151.694 109.745 147.979 107.556 145.443L107.541 145.436Z" fill="#211715"/>
<path d="M86.0111 81.2915C85.7573 79.1135 84.9509 77.0365 83.6687 75.2578C82.3865 73.4791 80.6708 72.0576 78.6847 71.1284C75.1829 69.5366 71.0531 69.5846 67.6996 67.704C66.0431 66.7631 64.6661 65.3993 63.7094 63.7519C61.5669 65.2309 59.0658 66.1058 56.4685 66.2848C53.8713 66.4638 51.2738 65.9402 48.9487 64.7691C47.2815 63.8731 45.8225 62.6349 44.6673 61.1356C43.512 59.6364 42.6867 57.9099 42.2454 56.0693C41.8041 54.2288 41.7568 52.3157 42.1066 50.4556C42.4563 48.5955 43.1952 46.8303 44.2749 45.2757C43.2127 42.5095 43.0763 39.4733 43.8862 36.623C44.696 33.7726 46.4086 31.2618 48.7667 29.4674C50.9588 27.8794 53.5329 26.9015 56.2264 26.6333C58.92 26.3652 61.6364 26.8164 64.0986 27.9411C66.847 22.3329 73.9793 19.5038 79.9821 21.1915C85.3733 22.7069 89.6993 27.4167 90.3644 32.6552C93.2059 31.7176 96.2785 31.7518 99.0984 32.7523C101.918 33.7528 104.325 35.6628 105.94 38.1816C107.338 40.493 108.094 43.1353 108.13 45.8361C108.292 48.4199 107.794 51.0025 106.684 53.3413C110.298 57.978 111.425 61.1037 109.936 66.4949C108.598 71.3431 103.24 76.416 97.5218 75.5438C97.7953 76.1681 97.909 76.8507 97.8525 77.5299C97.7961 78.2091 97.5712 78.8636 97.1983 79.4341C96.8254 80.0046 96.3162 80.4732 95.7167 80.7975C95.1172 81.1218 94.4464 81.2916 93.7648 81.2915H86.0111Z" fill="#FEBE69"/>
<path d="M59.9438 61.1852C60.5694 64.0694 62.1346 66.6643 64.3941 68.5628C66.9114 70.6343 69.9085 71.4825 73.0331 72.1802C75.6562 72.7646 78.2411 73.386 80.2406 75.2928C81.9417 76.877 83.0561 78.9905 83.4023 81.2891C83.423 81.9764 83.7054 82.63 84.1917 83.1162C84.6779 83.6025 85.3315 83.8848 86.0188 83.9056C86.7115 83.9013 87.3745 83.6243 87.8643 83.1345C88.354 82.6448 88.6311 81.9817 88.6354 81.2891C88.3134 78.2806 87.1299 75.4291 85.2269 73.0768C83.3239 70.7246 80.7824 68.9717 77.9075 68.0286C75.1362 67.1041 71.9887 66.9951 69.3787 65.6301C68.2559 65.0485 67.2785 64.2215 66.5192 63.2104C65.7599 62.1993 65.2381 61.0302 64.9926 59.7897C64.8076 59.1202 64.3642 58.5516 63.7599 58.2091C63.1556 57.8665 62.44 57.778 61.7705 57.9631C61.1009 58.1481 60.5324 58.5916 60.1898 59.1958C59.8472 59.8001 59.7587 60.5157 59.9438 61.1852Z" fill="#211715"/>
<path d="M72.9828 34.0768C72.8043 35.0218 72.3069 35.8768 71.5737 36.4991C70.8404 37.1214 69.9159 37.4732 68.9544 37.4957C65.7437 37.6723 62.5896 37.0018 59.3887 37.5873C54.0128 38.5685 50.9798 43.2565 50.1327 48.3435C49.9685 49.0118 50.0664 49.7177 50.4062 50.3161C50.746 50.9146 51.3019 51.3603 51.9599 51.5619C52.6288 51.7408 53.3413 51.6494 53.9434 51.3076C54.5456 50.9657 54.9891 50.4007 55.1783 49.7346C55.3573 48.4463 55.7117 47.1886 56.2314 45.9962C56.5897 45.1611 57.152 44.4293 57.8668 43.8681C58.2778 43.5062 57.5659 44.0382 58.0586 43.7253C58.244 43.6075 58.4261 43.4865 58.6169 43.3775C58.9483 43.1849 59.2991 43.0277 59.6635 42.9087C61.0741 42.5341 62.5408 42.4178 63.9928 42.5653C67.0683 42.7103 70.3902 43.1856 73.2336 41.7007C74.6161 40.9239 75.7912 39.8255 76.6594 38.4985C77.5276 37.1714 78.0634 35.6547 78.2214 34.0768C78.2179 33.3839 77.9412 32.7203 77.4512 32.2304C76.9613 31.7404 76.2977 31.4636 75.6048 31.4602C74.9161 31.4768 74.2602 31.7578 73.773 32.245C73.2859 32.7321 73.0049 33.388 72.9883 34.0768H72.9828Z" fill="#211715"/>
<path d="M71.5831 55.8431C71.4839 56.7012 71.6202 55.7014 71.6813 55.4616C71.7183 55.3166 71.7608 55.1716 71.8088 55.0255C71.8415 54.9252 72.0214 54.5152 71.8328 54.9252C71.6344 55.3536 71.8699 54.863 71.9146 54.778C71.9702 54.669 72.0236 54.5676 72.0912 54.4662C72.1777 54.3529 72.2575 54.2346 72.3299 54.1119C72.1119 54.5959 72.0661 54.4389 72.282 54.2045C72.379 54.0955 72.4815 53.9996 72.5872 53.9036L72.6963 53.8077C72.9056 53.6362 72.8438 53.683 72.5109 53.9483C72.7591 53.8278 72.9959 53.6852 73.2185 53.522C73.3395 53.461 73.4627 53.4076 73.5848 53.3487C74.0787 53.1078 73.0898 53.5471 73.5597 53.3552C73.8584 53.2331 74.1572 53.1121 74.4537 52.9878C76.0734 52.45 77.466 51.3848 78.4091 49.9624C79.2318 48.5157 79.5824 46.8483 79.4121 45.1927C79.3913 44.5027 79.12 43.8439 78.6489 43.3393C78.283 42.9721 77.8162 42.7218 77.3077 42.6203C76.7993 42.5188 76.2723 42.5707 75.7933 42.7692C75.3144 42.9678 74.9053 43.3042 74.6179 43.7356C74.3305 44.1671 74.1777 44.6742 74.179 45.1927C74.2173 45.5318 74.229 45.8733 74.2139 46.2142L74.2029 46.3865C74.1739 46.6772 74.184 46.6165 74.2335 46.2044C74.1939 46.3423 74.1647 46.483 74.1463 46.6252C74.1059 46.791 74.059 46.9523 74.0034 47.1159C73.8181 47.6533 74.0034 47.0265 74.0449 47.0319C74.0329 47.0319 73.8377 47.4004 73.8061 47.4593C73.5695 47.903 74.1942 47.0766 73.8388 47.4113C73.7242 47.5065 73.615 47.6081 73.5117 47.7155L73.8017 47.4876C73.72 47.5443 73.636 47.5966 73.5499 47.6522C73.3082 47.798 73.0581 47.9294 72.8009 48.0458C72.4313 48.2159 72.7104 48.0709 72.9176 48.0033C72.766 48.0524 72.6188 48.1265 72.4716 48.1865C72.0105 48.374 71.5504 48.5626 71.0947 48.7632C69.7322 49.3724 68.5672 50.3505 67.7313 51.5869C66.9272 52.8683 66.4536 54.3293 66.3533 55.8388C66.3524 56.1827 66.4194 56.5234 66.5504 56.8415C66.6813 57.1595 66.8737 57.4486 67.1165 57.6922C67.6071 58.1828 68.2726 58.4585 68.9666 58.4585C69.6605 58.4585 70.326 58.1828 70.8167 57.6922C71.2741 57.1789 71.5433 56.5253 71.5798 55.8388L71.5831 55.8431Z" fill="#211715"/>
<path d="M82.9355 42.2044C83.1961 42.0103 83.4806 41.8773 83.7554 41.7051C83.9396 41.6178 83.8306 41.6625 83.4283 41.8381C83.509 41.8054 83.5897 41.7748 83.6725 41.7465C83.8164 41.6963 83.9636 41.6527 84.1086 41.6135C84.2536 41.5742 84.4106 41.547 84.5622 41.5132C85.0103 41.4129 83.8284 41.5764 84.5316 41.5197C84.8479 41.4939 85.1654 41.4888 85.4823 41.5045C85.6186 41.511 85.7538 41.5252 85.8901 41.535C86.3556 41.5677 85.1727 41.4063 85.8704 41.535C86.1811 41.5939 86.488 41.6711 86.7895 41.7661C86.9171 41.8075 87.0424 41.8555 87.1689 41.898C87.5985 42.043 86.5344 41.5949 87.1482 41.898C87.4161 42.0285 87.6745 42.1778 87.9212 42.345C87.9898 42.3919 88.0563 42.4399 88.1229 42.4889C87.7754 42.2142 87.6788 42.1415 87.8329 42.2709C87.9419 42.3897 88.0781 42.4889 88.1926 42.598C88.3071 42.707 88.4357 42.8454 88.5502 42.9763C88.5993 43.0297 88.6462 43.0853 88.692 43.1409C88.8635 43.3524 88.814 43.2877 88.5437 42.9468C88.6701 43.227 88.9002 43.4789 89.0397 43.7591C89.3483 44.3718 88.8969 43.323 89.0397 43.7394C89.0812 43.8637 89.1237 43.9869 89.1586 44.1134C89.2054 44.2824 89.2371 44.4524 89.2741 44.6236C89.3832 45.1098 89.2316 43.9509 89.248 44.4524C89.2643 44.7702 89.2643 45.0886 89.248 45.4064C89.1989 46.1238 89.3493 44.9496 89.2578 45.4195C89.2294 45.5645 89.2054 45.7106 89.1738 45.8556C89.0816 46.2634 88.9662 46.6656 88.8282 47.0603C88.6484 47.7294 88.7393 48.4423 89.0813 49.0449C89.4233 49.6474 89.9888 50.0911 90.6555 50.2797C91.3241 50.4474 92.0316 50.351 92.631 50.0105C93.2304 49.67 93.6755 49.1116 93.8738 48.4514C94.3692 47.1112 94.5679 45.6795 94.456 44.2551C94.2804 42.5503 93.6087 40.9344 92.5241 39.6075C91.6029 38.5194 90.448 37.6533 89.1455 37.0736C87.843 36.4939 86.4265 36.2155 85.0015 36.2594C83.3229 36.2389 81.6784 36.7336 80.2896 37.6767C79.7166 38.0386 79.2914 38.5929 79.0903 39.24C78.9093 39.9205 79.0041 40.6449 79.3541 41.2559C79.7093 41.8498 80.2832 42.2808 80.9526 42.4563C81.622 42.6318 82.3335 42.5378 82.9344 42.1946L82.9355 42.2044Z" fill="#211715"/>
<path d="M94.9411 52.0939C95.0388 52.6442 94.9987 53.2101 94.8245 53.7412C94.8245 53.7619 94.5596 54.4346 94.6457 54.2623C94.5606 54.4295 94.4653 54.5911 94.3601 54.7464C94.48 54.5763 94.4767 54.5589 94.3502 54.6941C94.1936 54.8132 94.0239 54.9142 93.8444 54.995C93.6797 55.0881 93.5023 55.1568 93.3178 55.1989C92.6984 55.3967 92.0595 55.5268 91.4121 55.587C91.0128 55.5968 90.6207 55.6961 90.2649 55.8777C89.9092 56.0593 89.5987 56.3184 89.3564 56.636C89.1142 56.9536 88.9463 57.3215 88.8653 57.7127C88.7842 58.1038 88.7921 58.5081 88.8882 58.8958C88.951 59.2741 88.9021 59.6624 88.7475 60.0133C88.8838 59.6426 88.5447 60.36 88.4815 60.4494C88.3812 60.5966 88.3845 60.5955 88.4935 60.4494C88.378 60.5824 88.2559 60.71 88.1272 60.8321C87.5239 61.3489 86.7663 61.651 85.9729 61.6912C84.557 61.566 83.1853 61.1341 81.9531 60.4254C80.7209 59.7168 79.6577 58.7484 78.8374 57.5875C78.4738 57.0029 77.9001 56.5798 77.2341 56.4052C76.5682 56.2306 75.8607 56.3178 75.257 56.6489C74.6621 57.0031 74.2301 57.577 74.0545 58.2468C73.8789 58.9166 73.9737 59.6286 74.3183 60.2292C77.0962 64.0962 82.0175 67.4977 86.9879 66.8371C89.0331 66.5894 90.9158 65.5984 92.2777 64.0526C93.0373 63.1625 93.5819 62.1095 93.8693 60.9752C94.1566 59.8409 94.1791 58.6556 93.9349 57.5112L91.4121 60.8233C93.8352 60.7871 96.1748 59.9322 98.0505 58.3976C98.8378 57.5626 99.4352 56.5673 99.8018 55.4798C100.168 54.3923 100.295 53.2383 100.174 52.0971C100.153 51.4099 99.8704 50.7567 99.3843 50.2706C98.8981 49.7844 98.2449 49.5019 97.5577 49.4806C96.865 49.4846 96.2018 49.7616 95.7119 50.2514C95.2221 50.7412 94.9451 51.4044 94.9411 52.0971V52.0939Z" fill="#211715"/>
<path d="M105.115 55.5771C106.508 57.2203 107.469 59.185 107.911 61.2931C107.846 60.8876 107.942 61.7292 107.942 61.7227C107.955 61.9647 107.96 62.2078 107.957 62.4499C107.957 62.8227 107.894 63.5892 107.87 63.7582C107.771 64.3878 107.634 65.011 107.461 65.6246C107.396 65.8656 107.328 66.1054 107.249 66.342C107.249 66.3278 106.974 67.0561 107.087 66.7934C106.279 68.6722 104.965 70.2898 103.291 71.4661C102.477 72.0836 101.546 72.5312 100.555 72.7821C99.5638 73.0331 98.5323 73.0824 97.5218 72.927C96.8288 72.9301 96.1651 73.2068 95.6751 73.6968C95.1851 74.1869 94.9084 74.8506 94.9053 75.5435C94.9224 76.2321 95.2036 76.8877 95.6906 77.3748C96.1776 77.8618 96.8333 78.143 97.5218 78.1601C103.409 78.9461 109.234 74.6245 111.607 69.4383C112.866 66.7717 113.379 63.8138 113.092 60.8789C112.647 57.9777 111.455 55.2421 109.634 52.9398C109.271 52.3554 108.697 51.9324 108.031 51.7578C107.365 51.5833 106.658 51.6703 106.054 52.0011C105.459 52.3547 105.026 52.9285 104.851 53.5983C104.675 54.268 104.77 54.9801 105.115 55.5803V55.5771Z" fill="#211715"/>
<path d="M46.7627 44.5049C45.9604 42.4671 45.7735 40.2388 46.2252 38.0958C46.677 35.9529 47.7474 33.9896 49.3041 32.4491C51.0925 30.8114 53.3174 29.7276 55.7093 29.3287C58.1012 28.9299 60.5574 29.2333 62.7804 30.2021C63.3828 30.5378 64.0917 30.6275 64.7588 30.4525C65.4258 30.2776 65.9994 29.8515 66.3596 29.2635C67.4633 27.2079 69.1756 25.544 71.2618 24.4994C73.348 23.4548 75.7061 23.0808 78.0131 23.4285C80.4875 23.8366 82.7698 25.0154 84.5349 26.7969C86.2999 28.5784 87.4575 30.8716 87.8426 33.3496C88.0303 34.0169 88.4737 34.5832 89.0766 34.9253C89.6794 35.2675 90.3929 35.3579 91.062 35.1769C93.087 34.4997 95.265 34.4252 97.3314 34.9625C99.3979 35.4997 101.264 36.6256 102.702 38.2033C106.156 41.993 106.342 48.2989 104.079 52.7034C102.545 55.695 107.059 58.3453 108.598 55.345C111.93 48.8483 111.501 40.4427 106.656 34.7844C104.577 32.4509 101.867 30.7695 98.8533 29.9434C95.8395 29.1172 92.651 29.1817 89.6731 30.1291L92.8915 31.9563C91.9103 25.1304 85.7853 19.3543 79.0379 18.3197C72.2905 17.2851 65.0121 20.4108 61.8439 26.6251L65.4231 25.6864C58.9112 22.8812 51.224 23.5343 45.884 28.4861C43.5692 30.6675 41.9419 33.4775 41.202 36.5709C40.4621 39.6644 40.6419 42.9066 41.7193 45.8993C41.9211 46.5571 42.3669 47.1129 42.9653 47.4526C43.5637 47.7924 44.2694 47.8904 44.9377 47.7265C45.6043 47.5371 46.1695 47.0929 46.511 46.49C46.8526 45.8871 46.943 45.174 46.7627 44.5049Z" fill="#211715"/>
<path d="M61.3508 62.1372C59.1568 63.4253 56.5961 63.9453 54.0735 63.615C51.5508 63.2847 49.2103 62.1228 47.422 60.3133C45.8096 58.603 44.801 56.4121 44.5503 54.075C44.31 51.4112 45.0228 48.7486 46.5618 46.5611C46.9121 45.9618 47.01 45.248 46.834 44.5765C46.6579 43.9051 46.2224 43.3311 45.6231 42.9808C45.0239 42.6305 44.31 42.5326 43.6386 42.7086C42.9671 42.8847 42.3931 43.3202 42.0428 43.9195C40.014 46.9668 39.0757 50.6109 39.3806 54.2591C39.6854 57.9073 41.2154 61.3451 43.7218 64.0135C48.9887 69.6031 57.4292 70.2354 63.9924 66.6529C66.9491 65.0394 64.3108 60.5193 61.3508 62.135V62.1372Z" fill="#211715"/>
</svg>
