<svg width="266" height="200" viewBox="0 0 266 200" fill="none" xmlns="http://www.w3.org/2000/svg">
<g clip-path="url(#clip0_111_24)">
<path d="M106.806 198.332H100.06C96.3299 198.332 96.8744 193.943 97.3698 192.857C97.8651 191.771 98.8456 191.075 100.543 190.748C106.424 189.616 107.881 186.401 108.369 180.705C108.578 178.264 108.795 176.748 108.914 174.316C108.99 172.747 109.124 170.996 109.355 168.614H148.832C149.06 170.996 149.194 172.747 149.27 174.317C149.389 176.749 149.607 178.264 149.815 180.705C150.303 186.402 151.76 189.616 157.64 190.749C159.338 191.076 160.318 191.772 160.814 192.858C161.31 193.944 161.854 198.333 158.124 198.333L129.092 198.327L106.806 198.332Z" fill="white"/>
<path d="M214.842 38.1179H43.2704C37.5267 38.1179 32.8706 42.8313 32.8706 48.6456V158.087C32.8706 163.901 37.5267 168.615 43.2704 168.615H214.842C220.585 168.615 225.241 163.901 225.241 158.087V48.6456C225.241 42.8313 220.585 38.1179 214.842 38.1179Z" fill="white"/>
<path d="M214.842 166.977H46.247C44.6126 167.089 42.9709 167.019 41.3517 166.767C39.4094 166.308 37.6761 165.2 36.4311 163.623C35.186 162.045 34.5016 160.09 34.488 158.071C34.4826 157.513 34.488 156.955 34.488 156.398V53.5746C34.3921 51.5741 34.4101 49.5697 34.5419 47.5713C34.8214 45.4218 35.8588 43.447 37.463 42.0107C39.0672 40.5745 41.1301 39.7734 43.2717 39.7553C43.5844 39.7553 43.8971 39.7553 44.2098 39.7553H214.236C215.255 39.7256 216.273 39.8404 217.26 40.0964C219.092 40.6419 220.702 41.7716 221.849 43.3173C222.996 44.8631 223.619 46.7425 223.626 48.6757C223.644 50.6725 223.626 52.6707 223.626 54.6675V156.978C223.626 157.66 223.649 158.352 223.583 159.031C223.335 161.206 222.309 163.215 220.699 164.679C219.089 166.142 217.007 166.96 214.843 166.977C212.763 167.005 212.754 170.279 214.843 170.252C217.409 170.227 219.901 169.382 221.965 167.839C224.028 166.295 225.558 164.132 226.335 161.656C226.73 160.222 226.907 158.735 226.861 157.247V54.6675C226.861 52.6673 226.88 50.6657 226.861 48.6641C226.85 46.3955 226.219 44.1742 225.037 42.2465C223.855 40.3188 222.169 38.76 220.166 37.7428C218.382 36.8881 216.429 36.4564 214.455 36.4807H44.1013C43.6464 36.4807 43.1895 36.4719 42.7353 36.4944C40.1976 36.6296 37.7656 37.5667 35.7814 39.1739C33.7972 40.7812 32.3606 42.9776 31.6737 45.4544C31.0274 47.866 31.2552 50.5845 31.2552 53.065V156.451C31.2552 156.993 31.2492 157.536 31.2552 158.077C31.2691 160.43 31.9505 162.73 33.2182 164.702C34.4859 166.674 36.2866 168.236 38.4061 169.201C40.8322 170.271 43.2232 170.252 45.7679 170.252H214.842C216.923 170.252 216.926 166.977 214.842 166.977Z" fill="#211715"/>
<path d="M107.676 169.266C107.416 172.055 107.315 174.855 107.044 177.643C106.819 179.967 106.759 182.343 106.065 184.58C105.865 185.325 105.52 186.022 105.049 186.628C104.577 187.235 103.99 187.74 103.322 188.112C101.384 189.197 98.82 189.03 97.0382 190.61C94.2927 193.044 94.9491 198.865 98.7405 199.814C99.9402 200.01 101.158 200.062 102.37 199.97H108.331C120.872 199.967 133.413 199.967 145.953 199.97H157.561C159.323 199.97 160.963 199.561 161.986 197.981C162.408 197.22 162.674 196.381 162.77 195.514C162.866 194.647 162.789 193.769 162.543 192.932C161.918 190.524 159.803 189.562 157.597 189.074C156.614 188.885 155.665 188.546 154.783 188.068C154.473 187.889 154.178 187.687 153.9 187.461C153.753 187.331 153.613 187.194 153.478 187.052C153.402 186.971 153.328 186.889 153.256 186.805C153.229 186.774 153.016 186.499 153.15 186.68C152.19 185.203 151.632 183.496 151.532 181.731C151.201 178.964 151.003 176.176 150.836 173.395C150.752 172.016 150.633 170.64 150.506 169.265C150.495 168.834 150.321 168.424 150.02 168.12C149.719 167.815 149.314 167.639 148.889 167.628C148.461 167.631 148.051 167.804 147.748 168.11C147.446 168.417 147.274 168.832 147.271 169.265C147.523 171.964 147.62 174.675 147.878 177.373C148.004 179.842 148.311 182.298 148.797 184.721C149.194 186.54 150.083 188.21 151.365 189.546C152.909 190.95 154.81 191.889 156.854 192.255C157.724 192.441 158.769 192.623 159.233 193.337C159.306 193.449 159.348 193.572 159.417 193.685C159.385 193.632 159.323 193.293 159.341 193.518C159.361 193.614 159.389 193.709 159.424 193.802C159.463 193.951 159.491 194.103 159.518 194.255C159.525 194.292 159.551 194.504 159.526 194.292C159.495 194.044 159.534 194.428 159.536 194.478C159.556 194.815 159.55 195.154 159.518 195.49C159.555 195.168 159.485 195.61 159.459 195.712C159.441 195.78 159.419 195.854 159.399 195.925C159.284 196.345 159.481 195.795 159.372 196.011C159.301 196.226 159.16 196.41 158.972 196.534C158.784 196.658 158.561 196.714 158.338 196.693C157.327 196.762 156.297 196.698 155.288 196.698H149.241C137.09 196.695 124.939 196.695 112.788 196.698H101.028C100.636 196.698 100.236 196.721 99.845 196.693C99.6221 196.713 99.3991 196.656 99.2116 196.533C99.0241 196.409 98.8829 196.226 98.8106 196.011C98.6967 195.786 98.884 196.236 98.8106 195.995C98.7883 195.927 98.762 195.858 98.7432 195.783C98.7229 195.66 98.6943 195.538 98.6576 195.419C98.6586 195.295 98.6518 195.172 98.6374 195.049C98.632 194.858 98.6374 194.669 98.6482 194.478C98.6482 194.386 98.663 194.295 98.6711 194.205C98.6664 194.259 98.6084 194.551 98.6657 194.255C98.6913 194.119 98.7149 193.987 98.7472 193.854C98.7852 193.744 98.8171 193.632 98.8429 193.518C98.849 193.471 98.9319 193.281 98.8193 193.561C98.6805 193.902 98.9069 193.405 98.9541 193.337C99.4198 192.62 100.463 192.441 101.334 192.255C102.444 192.022 103.522 191.652 104.544 191.155C106.191 190.353 107.542 189.038 108.398 187.403C109.275 185.517 109.793 183.48 109.925 181.4C110.208 178.697 110.425 175.993 110.593 173.282C110.675 171.943 110.79 170.606 110.915 169.271C110.912 168.838 110.74 168.423 110.438 168.117C110.135 167.81 109.725 167.637 109.297 167.634C108.871 167.643 108.465 167.818 108.163 168.123C107.862 168.428 107.689 168.84 107.68 169.271L107.676 169.266Z" fill="#211715"/>
<path d="M111.508 190.985H146.603C148.685 190.985 148.688 187.71 146.603 187.71H111.508C109.427 187.71 109.424 190.985 111.508 190.985Z" fill="#211715"/>
<path d="M32.8706 150.296H225.241C227.322 150.296 227.326 147.021 225.241 147.021H32.8706C30.7889 147.021 30.7855 150.296 32.8706 150.296Z" fill="#211715"/>
<path d="M155.937 72.2368H102.429C102.12 72.2368 101.824 72.361 101.605 72.5821C101.387 72.8032 101.264 73.103 101.264 73.4157V127.651C101.265 127.963 101.388 128.262 101.606 128.483C101.825 128.704 102.12 128.829 102.429 128.829H156.005C156.158 128.83 156.309 128.799 156.45 128.74C156.592 128.681 156.72 128.594 156.828 128.485C156.937 128.376 157.022 128.246 157.081 128.103C157.139 127.959 157.169 127.806 157.169 127.651C157.16 120.362 157.109 81.454 157.102 73.4109C157.102 73.2564 157.071 73.1034 157.013 72.9607C156.954 72.818 156.868 72.6885 156.76 72.5794C156.652 72.4704 156.523 72.384 156.382 72.3252C156.241 72.2664 156.09 72.2364 155.937 72.2368Z" fill="#3D8DCC"/>
<path d="M155.937 70.5995H102.999C102.821 70.5995 102.642 70.592 102.464 70.5995C101.725 70.6068 101.018 70.9048 100.492 71.4306C99.9665 71.9563 99.6636 72.6685 99.6476 73.4163C99.6273 73.8666 99.6476 74.3223 99.6476 74.7725V127.073C99.6476 127.256 99.6402 127.441 99.6476 127.625C99.66 128.37 99.9564 129.082 100.475 129.611C100.993 130.141 101.694 130.447 102.43 130.466C104.107 130.542 105.805 130.466 107.484 130.466H155.453C155.628 130.466 155.804 130.474 155.979 130.466C156.727 130.455 157.44 130.147 157.966 129.609C158.491 129.07 158.786 128.343 158.786 127.586C158.838 126.116 158.782 124.634 158.78 123.162C158.774 118.128 158.767 113.094 158.761 108.061C158.747 97.38 158.735 86.6995 158.722 76.0189V73.9403C158.722 72.1215 157.846 70.7708 155.94 70.5975C155.512 70.6007 155.102 70.7742 154.8 71.0806C154.497 71.3869 154.326 71.8015 154.322 72.2348C154.331 72.6663 154.504 73.0777 154.806 73.3828C155.107 73.688 155.514 73.8633 155.94 73.872C155.877 73.8666 155.266 73.5596 155.488 73.4081C155.48 73.4805 155.48 73.5534 155.488 73.6258C155.48 73.7571 155.48 73.8887 155.488 74.0201C155.488 74.353 155.488 74.6857 155.488 75.0181V77.5089C155.49 79.6851 155.493 81.8615 155.495 84.0382C155.502 89.6632 155.509 95.2881 155.516 100.913C155.523 106.449 155.53 111.986 155.537 117.522L155.545 123.847V126.157V127.088C155.538 127.208 155.538 127.329 155.545 127.45C155.617 128.056 155.697 126.799 155.998 127.189C155.904 127.067 154.858 127.189 154.715 127.189H103.549C103.262 127.189 102.965 127.168 102.678 127.189C102.285 127.219 102.493 127.165 102.821 127.415C102.978 127.535 102.865 127.756 102.882 127.342C102.896 127.031 102.882 126.716 102.882 126.405V74.6034C102.882 74.3025 102.902 73.9942 102.882 73.694C102.859 73.3208 102.927 73.3611 102.658 73.8113C102.567 73.9641 102.301 73.855 102.731 73.8741C103.02 73.8871 103.312 73.8741 103.601 73.8741H155.937C158.019 73.8741 158.022 70.5995 155.937 70.5995Z" fill="#211715"/>
<path d="M101.621 51.9939L125.877 94.5256C126.127 94.9615 126.259 95.4563 126.259 95.96C126.259 96.4638 126.129 96.9588 125.88 97.395C125.631 97.8313 125.273 98.1935 124.842 98.445C124.41 98.6965 123.921 98.8285 123.424 98.8276H74.9097C74.4121 98.8285 73.923 98.6965 73.4918 98.445C73.0606 98.1935 72.7025 97.8313 72.4537 97.395C72.2049 96.9588 72.0741 96.4638 72.0745 95.96C72.0749 95.4563 72.2065 94.9615 72.456 94.5256L96.7127 51.9939C96.9614 51.5578 97.3191 51.1957 97.7499 50.944C98.1807 50.6922 98.6693 50.5597 99.1667 50.5597C99.6641 50.5597 100.153 50.6922 100.584 50.944C101.014 51.1957 101.372 51.5578 101.621 51.9939Z" fill="#F2635F"/>
<path d="M100.224 52.82L105.706 62.4322L116.449 81.2678L124.067 94.6212C124.201 94.8613 124.363 95.0987 124.482 95.3484C124.592 95.5443 124.647 95.7669 124.641 95.9921C124.635 96.2173 124.568 96.4366 124.448 96.6263C124.328 96.8159 124.159 96.9687 123.959 97.0681C123.759 97.1675 123.536 97.2098 123.315 97.1904C121.961 97.221 120.604 97.1904 119.251 97.1904H75.2756C74.6267 97.1904 74.0929 97.086 73.8058 96.4802C73.716 96.2305 73.6923 95.9613 73.7371 95.6994C73.7819 95.4375 73.8937 95.1921 74.0613 94.9875L81.0585 82.7188L91.8956 63.7175L96.0738 56.3934C96.7356 55.2337 97.3502 54.0228 98.0686 52.8958C98.6286 52.0164 99.6536 51.8984 100.225 52.8214C101.328 54.6033 104.128 52.9619 103.018 51.1691C102.66 50.565 102.168 50.0533 101.581 49.6742C100.994 49.2952 100.328 49.0592 99.6357 48.9847C98.9433 48.9103 98.2434 48.9994 97.5908 49.2452C96.9383 49.4909 96.351 49.8865 95.875 50.401C95.5226 50.8318 95.2158 51.2989 94.9599 51.7947L92.0486 56.8982L81.4244 75.5264L72.2343 91.6406C71.4047 93.0944 70.3062 94.5925 70.4821 96.3594C70.5954 97.4838 71.1163 98.5258 71.944 99.2843C72.7718 100.043 73.8478 100.464 74.9643 100.466C75.3936 100.478 75.8249 100.466 76.2548 100.466H121.921C122.393 100.466 122.861 100.477 123.329 100.466C124.311 100.472 125.269 100.156 126.059 99.565C126.848 98.9739 127.428 98.1398 127.71 97.1876C128.304 95.1192 127.151 93.4819 126.196 91.8078L122.461 85.2587L111.409 65.8842L103.432 51.8991L103.017 51.165C101.977 49.3429 99.1799 50.9904 100.224 52.82Z" fill="#211715"/>
<path d="M249.163 18.0387C247.036 17.9377 245.492 18.9904 243.818 20.1487C241.941 21.4463 240.072 22.7554 238.21 24.0762C227.64 31.5756 217.04 39.1214 206.75 47.0145L206.48 47.2191C205.916 47.6541 205.541 48.2932 205.432 49.0025C205.323 49.7118 205.49 50.4361 205.897 51.0238L209.868 56.772C210.274 57.3606 210.889 57.7675 211.584 57.9074C212.28 58.0473 213.002 57.9093 213.599 57.5224C223.998 50.7789 234.177 43.4691 244.141 36.0863C247.129 33.8726 250.206 31.6786 253.02 29.2384C253.976 28.4024 254.662 27.295 254.988 26.0598C255.315 24.8246 255.267 23.5186 254.851 22.3112C254.435 21.1038 253.671 20.0507 252.657 19.2885C251.643 18.5263 250.426 18.0902 249.164 18.0367L249.163 18.0387Z" fill="white"/>
<path d="M249.163 16.4014C246.69 16.3434 244.705 17.5564 242.733 18.9201C240.585 20.4073 238.447 21.9082 236.318 23.4226C231.924 26.5417 227.539 29.6741 223.164 32.8199C218.883 35.9126 214.628 39.0416 210.4 42.207C209.345 42.9997 208.293 43.7956 207.244 44.5947C206.284 45.3267 205.126 46.0082 204.467 47.0541C204.011 47.7927 203.779 48.6499 203.797 49.5205C203.816 50.3911 204.086 51.2372 204.573 51.955C205.786 53.7635 207.042 55.5488 208.289 57.3348C208.691 58.0052 209.253 58.5632 209.922 58.9582C210.592 59.3531 211.348 59.5725 212.122 59.5963C213.255 59.5222 214.339 59.1056 215.235 58.4004C216.33 57.6868 217.421 56.968 218.508 56.244C227.411 50.3163 236.093 44.0578 244.694 37.6922C247.041 35.9553 249.405 34.2437 251.696 32.4318C253.71 30.8382 255.66 29.3325 256.451 26.7606C258.01 21.6899 254.254 16.7378 249.163 16.3973C248.734 16.3973 248.323 16.5698 248.019 16.8769C247.716 17.1839 247.546 17.6004 247.546 18.0346C247.546 18.4689 247.716 18.8853 248.019 19.1924C248.323 19.4994 248.734 19.6719 249.163 19.6719C249.918 19.7265 250.65 19.9639 251.295 20.3641C251.941 20.7643 252.483 21.3156 252.874 21.9717C253.266 22.6278 253.496 23.3694 253.545 24.1343C253.595 24.8991 253.462 25.6648 253.159 26.367C252.382 28.1339 250.438 29.3189 248.98 30.4534C247.123 31.8962 245.216 33.2722 243.326 34.6701C235.599 40.3896 227.815 46.026 219.863 51.414C217.878 52.7588 215.882 54.0871 213.876 55.3987C213.034 55.9486 212.02 56.8696 211.19 55.8422C209.933 54.2847 208.882 52.4994 207.743 50.8526C207.348 50.2802 206.759 49.6355 207.126 48.9103C207.443 48.2834 208.319 47.8515 208.878 47.4265C209.84 46.6934 210.804 45.9632 211.771 45.236C215.639 42.3253 219.536 39.4525 223.461 36.6178C227.826 33.4555 232.208 30.3174 236.61 27.2034C238.833 25.6241 241.057 24.0455 243.297 22.488C245.068 21.2553 246.899 19.6194 249.165 19.6726C251.245 19.7244 251.245 16.4499 249.163 16.4014Z" fill="#211715"/>
<path d="M203.469 67.2083C206.502 65.0587 210.293 61.2943 208.52 57.2605C207.933 55.7666 207.084 54.3925 206.014 53.2048C203.169 50.3014 198.335 51.1862 195.293 53.3412C192.445 55.3571 191.856 57.6875 191.209 60.1087C190.421 63.068 189.421 64.0081 187.276 66.3358C189.806 67.546 193.196 69.3136 196.06 69.3716C198.69 69.431 201.275 68.6763 203.469 67.2083Z" fill="white"/>
<path d="M204.285 68.6218C206.889 66.7594 209.702 64.2435 210.409 60.9402C210.746 59.1347 210.447 57.2667 209.564 55.6614C208.835 53.9726 207.72 52.4837 206.311 51.3178C203.807 49.4029 200.343 49.366 197.478 50.403C195.903 50.9308 194.459 51.7984 193.246 52.9459C192.034 54.0934 191.082 55.4935 190.456 57.0497C189.888 58.5014 189.7 60.1093 189.014 61.5099C188.237 62.8687 187.267 64.1043 186.134 65.1767C185.479 65.8876 185.481 67.2786 186.461 67.7486C189.322 69.1205 192.226 70.6452 195.424 70.9672C198.555 71.2185 201.679 70.392 204.288 68.6218C206.001 67.445 204.384 64.6064 202.655 65.7948C200.538 67.2625 197.979 67.934 195.424 67.6927C192.844 67.3939 190.408 66.0288 188.097 64.9209L188.424 67.4921C190.269 65.4926 191.884 63.6104 192.665 60.9327C192.925 59.7933 193.28 58.6783 193.726 57.5995C194.306 56.3958 195.193 55.3704 196.295 54.6285C198.161 53.3631 200.647 52.5772 202.875 53.1959C203.99 53.5263 204.954 54.2449 205.596 55.2248C206.458 56.3183 207.056 57.5999 207.343 58.968C207.673 61.8394 204.706 64.3274 202.655 65.7948C202.294 66.0218 202.032 66.38 201.924 66.7967C201.816 67.2135 201.87 67.6563 202.075 68.0338C202.294 68.4055 202.648 68.6753 203.061 68.7853C203.475 68.8953 203.914 68.8366 204.285 68.6218Z" fill="#211715"/>
<path d="M180.271 4.96845C167.824 -1.02331 151.302 0.573717 142.512 13.2777C135.878 22.8673 136.053 35.5522 140.253 44.5982C144.783 54.357 158.954 64.1139 169.491 58.0088C170.636 57.3672 171.59 56.4266 172.253 55.2849C172.917 54.1433 173.266 52.8424 173.265 51.5177C173.338 49.7078 173.114 47.8754 173.433 46.0922C174.212 41.7261 178.076 38.8465 182.348 38.6705C187.017 38.4781 190.937 38.5927 193.376 33.7027C194.65 30.8881 195.018 27.7398 194.43 24.7018C193.066 16.2118 188.148 8.4811 180.226 4.92274" fill="white"/>
<path d="M181.085 3.55491C170.476 -1.50906 157.063 -1.51247 147.435 5.82254C136.553 14.112 133.138 29.383 137.533 42.1484C139.629 48.0482 143.504 53.1316 148.611 56.6792C153.59 60.2465 159.964 62.5189 166.073 61.1135C169.06 60.4252 172.159 58.82 173.699 56.027C174.479 54.5411 174.889 52.8851 174.894 51.2025C174.939 49.3347 174.681 47.4224 175.211 45.603C175.627 44.3319 176.366 43.1938 177.354 42.3025C178.341 41.4113 179.542 40.7983 180.837 40.5247C182.231 40.2941 183.642 40.1822 185.055 40.1904C186.434 40.1399 187.803 39.9183 189.129 39.5307C192.272 38.5074 194.349 35.9997 195.458 32.9189C196.738 29.3626 196.382 25.4249 195.494 21.8222C193.989 15.4421 190.315 9.80118 185.115 5.88667C183.841 4.95713 182.476 4.16166 181.042 3.51261C180.669 3.30629 180.233 3.25148 179.822 3.35935C179.412 3.46723 179.057 3.72967 178.831 4.09317C178.617 4.46897 178.559 4.91449 178.667 5.33362C178.776 5.75274 179.043 6.11187 179.411 6.33351C184.696 8.79275 188.861 13.1928 191.063 18.6431C192.304 21.4919 192.983 24.5589 193.061 27.6714C193.066 30.4875 192.231 33.919 189.821 35.5951C187.887 36.9404 185.374 36.9138 183.043 37.0032C180.096 36.9981 177.246 38.0678 175.014 40.0165C172.557 42.2575 171.636 45.3677 171.641 48.6347C171.641 50.242 171.805 51.867 171.315 53.421C170.942 54.5841 170.195 55.587 169.192 56.2692C164.623 59.3753 158.641 58.4741 153.971 56.1164C148.969 53.6301 144.837 49.6566 142.127 44.7278C136.574 34.2137 138.118 19.7544 146.351 11.126C153.946 3.16333 165.793 1.56903 175.89 4.94523C177.106 5.35043 178.296 5.83022 179.455 6.38195C179.828 6.58941 180.265 6.64414 180.676 6.53486C181.088 6.42558 181.443 6.16061 181.667 5.79457C181.88 5.41888 181.939 4.97346 181.83 4.55444C181.721 4.13543 181.455 3.77642 181.087 3.55491H181.085Z" fill="#211715"/>
<path d="M159.492 22.3871C159.431 22.7876 159.328 23.1805 159.185 23.5591C159.043 23.8817 158.869 24.1881 158.663 24.4732C158.468 24.7134 158.25 24.9334 158.013 25.1302C157.739 25.3316 157.446 25.5035 157.137 25.6432C156.774 25.7831 156.398 25.8842 156.015 25.9448C155.541 25.9986 155.063 25.9986 154.589 25.9448C154.21 25.8841 153.839 25.7838 153.481 25.6453C153.161 25.5008 152.857 25.3226 152.574 25.1138C152.328 24.9095 152.102 24.681 151.9 24.4316C151.692 24.1431 151.515 23.8327 151.371 23.5059C151.23 23.1328 151.129 22.7456 151.068 22.3509C151.02 21.9236 151.016 21.4923 151.058 21.0643C151.118 20.675 151.219 20.2934 151.361 19.9264C151.508 19.5969 151.689 19.2837 151.9 18.9918C152.326 18.4332 152.887 17.9954 153.529 17.7208C153.9 17.5735 154.287 17.4684 154.681 17.4077C155.083 17.3651 155.488 17.3651 155.889 17.4077C156.279 17.4687 156.661 17.5725 157.029 17.7174C157.671 17.9899 158.232 18.4258 158.658 18.9829C158.869 19.2732 159.05 19.5845 159.198 19.9121C159.341 20.2825 159.444 20.6677 159.504 21.0609C159.547 21.5021 159.543 21.9467 159.492 22.3871Z" fill="white"/>
<path d="M155.622 37.8437C155.561 38.2442 155.458 38.6371 155.315 39.0157C155.173 39.3379 154.999 39.644 154.794 39.9292C154.598 40.1692 154.381 40.3895 154.143 40.5868C153.87 40.788 153.576 40.9597 153.267 41.0992C152.905 41.2393 152.529 41.3403 152.145 41.4007C151.671 41.4549 151.192 41.4549 150.718 41.4007C150.34 41.3402 149.969 41.2401 149.611 41.1019C149.291 40.9571 148.988 40.7788 148.705 40.5698C148.458 40.3656 148.233 40.137 148.031 39.8876C147.823 39.5987 147.646 39.2884 147.502 38.9618C147.361 38.5889 147.26 38.202 147.199 37.8075C147.151 37.38 147.147 36.9485 147.189 36.5202C147.249 36.131 147.35 35.7494 147.492 35.3823C147.639 35.0531 147.82 34.7401 148.031 34.4484C148.456 33.8892 149.017 33.451 149.66 33.1768C150.031 33.0297 150.418 32.9247 150.812 32.8636C151.214 32.821 151.618 32.821 152.02 32.8636C152.41 32.924 152.792 33.0276 153.16 33.1727C153.802 33.4458 154.363 33.8816 154.79 34.4382C155 34.7286 155.181 35.0402 155.329 35.368C155.472 35.7382 155.575 36.1232 155.635 36.5161C155.677 36.9579 155.673 37.4029 155.622 37.8437Z" fill="white"/>
<path d="M174.028 17.2057C173.967 17.6063 173.864 17.9991 173.722 18.3778C173.58 18.6999 173.405 19.0061 173.2 19.2912C173.005 19.5313 172.787 19.7515 172.55 19.9489C172.276 20.1499 171.982 20.3216 171.674 20.4612C171.311 20.6012 170.935 20.7025 170.552 20.7634C170.077 20.8173 169.599 20.8173 169.125 20.7634C168.747 20.7035 168.376 20.6038 168.018 20.466C167.698 20.3212 167.394 20.1429 167.111 19.9339C166.864 19.7293 166.639 19.5008 166.437 19.2517C166.229 18.9624 166.051 18.6519 165.908 18.3252C165.767 17.9522 165.665 17.5654 165.604 17.171C165.556 16.7437 165.552 16.3123 165.594 15.8843C165.654 15.4947 165.756 15.1129 165.898 14.7457C166.045 14.4163 166.225 14.1033 166.437 13.8118C166.655 13.5407 166.899 13.2927 167.166 13.0716C167.447 12.8639 167.749 12.6858 168.066 12.5402C168.437 12.393 168.824 12.288 169.218 12.227C169.619 12.1844 170.024 12.1844 170.426 12.227C170.816 12.2875 171.198 12.3911 171.566 12.5361C171.887 12.6835 172.192 12.8639 172.476 13.0743C172.739 13.2932 172.98 13.5379 173.195 13.805C173.405 14.0954 173.586 14.407 173.734 14.7348C173.878 15.1048 173.981 15.4899 174.04 15.883C174.083 16.3231 174.079 16.7665 174.028 17.2057Z" fill="white"/>
<path d="M157.933 21.9519C157.899 22.1518 157.86 22.3503 157.809 22.5461C157.79 22.6197 157.77 22.6927 157.747 22.7651C157.735 22.8053 157.631 23.1062 157.701 22.9261C157.765 22.7657 157.667 22.9902 157.659 23.0052C157.611 23.0939 157.565 23.1826 157.513 23.2692C157.462 23.3558 157.411 23.4425 157.353 23.523C157.488 23.3374 157.334 23.5305 157.263 23.6042C157.205 23.6662 156.848 23.9698 157.078 23.8013C156.919 23.9113 156.753 24.0115 156.581 24.1015C156.563 24.1117 156.348 24.2079 156.514 24.1411C156.695 24.0681 156.408 24.1704 156.366 24.184C156.18 24.2413 155.988 24.2734 155.802 24.3266C155.571 24.3948 156.037 24.3307 155.78 24.33C155.675 24.33 155.569 24.3437 155.463 24.3464C155.277 24.3512 155.093 24.3389 154.907 24.3375C154.84 24.3375 154.591 24.2857 154.88 24.343C154.812 24.3293 154.739 24.315 154.669 24.2993C154.458 24.2526 154.251 24.1925 154.048 24.1192C154.329 24.2222 153.913 24.0394 153.833 23.9917C153.753 23.9439 153.666 23.8777 153.578 23.8313C153.42 23.7481 153.587 23.8416 153.617 23.8689C153.482 23.7461 153.358 23.6137 153.227 23.4855C153.177 23.4357 153.07 23.2569 153.215 23.4855C153.16 23.4002 153.103 23.3156 153.051 23.2283C153 23.1409 152.955 23.0489 152.905 22.9608C152.872 22.9035 152.801 22.6798 152.885 22.9356C152.83 22.7698 152.779 22.6041 152.737 22.4342C152.713 22.338 152.699 22.2377 152.669 22.1429C152.62 21.9669 152.669 22.1599 152.669 22.1961C152.649 21.9552 152.642 21.7133 152.649 21.4716C152.649 21.4266 152.673 21.0916 152.649 21.2949C152.63 21.4723 152.663 21.2356 152.667 21.2144C152.712 21.022 152.763 20.8344 152.819 20.6448C152.824 20.6291 152.909 20.4033 152.843 20.5615C152.769 20.7396 152.905 20.4497 152.925 20.4121C152.962 20.3439 153 20.2757 153.039 20.2075C153.056 20.1802 153.33 19.807 153.135 20.0376C153.247 19.9054 153.367 19.7792 153.492 19.6597C153.546 19.6085 153.601 19.558 153.657 19.5089C153.454 19.6849 153.636 19.528 153.688 19.498C153.861 19.3984 154.025 19.2933 154.207 19.2019C154.172 19.219 153.993 19.2667 154.165 19.2244C154.285 19.1944 154.403 19.146 154.523 19.1132C154.619 19.0873 154.716 19.0662 154.813 19.045C154.834 19.0402 155.075 19.0048 154.894 19.0259C154.692 19.0498 155.008 19.0259 155.054 19.0259C155.155 19.0218 155.257 19.0205 155.357 19.0218C155.457 19.0232 155.912 19.0716 155.601 19.0218C155.795 19.055 155.987 19.1005 156.176 19.1583C156.27 19.1862 156.364 19.2176 156.457 19.251C156.187 19.1535 156.489 19.2783 156.546 19.309C156.635 19.3581 156.721 19.4093 156.806 19.4632C156.86 19.4973 157.114 19.702 156.903 19.5151C157.05 19.6447 157.185 19.7845 157.32 19.9244C157.527 20.1386 157.387 20.0015 157.346 19.9414C157.42 20.0451 157.486 20.1556 157.548 20.2662C157.587 20.3344 157.623 20.4026 157.66 20.4708C157.868 20.8433 157.652 20.3453 157.707 20.5663C157.761 20.7874 157.829 20.9954 157.885 21.2117C157.902 21.2799 157.905 21.5023 157.894 21.2349C157.898 21.3447 157.907 21.4552 157.908 21.5657C157.911 21.8417 157.897 22.1175 157.868 22.3919C157.869 22.8257 158.04 23.2413 158.343 23.548C158.646 23.8548 159.057 24.0277 159.485 24.0292C159.911 24.0178 160.316 23.8416 160.616 23.537C160.917 23.2324 161.091 22.8225 161.103 22.3919C161.251 21.1863 161.031 19.9638 160.474 18.888C159.916 17.8123 159.047 16.9347 157.983 16.3728C156.91 15.8107 155.693 15.5954 154.495 15.7562C153.298 15.917 152.178 16.4461 151.287 17.2719C150.396 18.0978 149.777 19.1806 149.514 20.3741C149.25 21.5675 149.355 22.8141 149.814 23.9453C150.253 25.0655 151.024 26.0205 152.021 26.6792C153.018 27.3379 154.192 27.6678 155.381 27.6237C156.752 27.6245 158.083 27.1537 159.155 26.2886C160.178 25.4016 160.85 24.1713 161.05 22.823C161.154 22.4047 161.094 21.9621 160.884 21.587C160.674 21.212 160.329 20.9334 159.921 20.8092C159.507 20.6994 159.068 20.7575 158.697 20.971C158.325 21.1845 158.051 21.5365 157.933 21.9519Z" fill="#211715"/>
<path d="M154.062 37.4085C154.029 37.6083 153.991 37.8062 153.94 38.0026C153.921 38.0756 153.899 38.1486 153.878 38.221C153.865 38.2619 153.761 38.5621 153.832 38.382C153.895 38.2223 153.797 38.4468 153.789 38.4611C153.741 38.5498 153.695 38.6385 153.644 38.7251C153.593 38.8117 153.541 38.8991 153.483 38.9796C153.618 38.7933 153.465 38.9871 153.394 39.0607C153.335 39.1221 152.977 39.4257 153.209 39.2572C153.049 39.3672 152.883 39.4677 152.712 39.5581C152.694 39.5683 152.477 39.6638 152.644 39.5976C152.825 39.524 152.539 39.627 152.496 39.6399C152.311 39.6979 152.119 39.7293 151.933 39.7832C151.702 39.8514 152.167 39.7873 151.911 39.7832C151.805 39.7832 151.699 39.7968 151.593 39.7996C151.408 39.8043 151.223 39.7927 151.038 39.7907C150.97 39.7907 150.722 39.7388 151.01 39.7968C150.942 39.7825 150.869 39.7682 150.799 39.7525C150.589 39.7058 150.382 39.6457 150.179 39.5724C150.458 39.6761 150.044 39.4926 149.964 39.4448C149.883 39.3971 149.796 39.3316 149.709 39.2852C149.551 39.2013 149.716 39.2947 149.747 39.3227C149.613 39.1999 149.488 39.0669 149.358 38.9386C149.307 38.8888 149.199 38.7101 149.345 38.9386C149.29 38.8527 149.234 38.7681 149.182 38.6808C149.13 38.5934 149.086 38.502 149.035 38.4133C149.002 38.3567 148.931 38.1323 149.015 38.3881C148.961 38.2223 148.909 38.0565 148.867 37.8874C148.843 37.7905 148.829 37.6909 148.8 37.5954C148.751 37.4194 148.8 37.6124 148.8 37.6493C148.78 37.4083 148.773 37.1665 148.78 36.9248C148.78 36.8797 148.805 36.5448 148.78 36.7474C148.761 36.9255 148.794 36.688 148.798 36.6676C148.843 36.4745 148.894 36.2876 148.95 36.0979C148.955 36.0816 149.04 35.8558 148.974 36.0147C148.9 36.1921 149.036 35.9022 149.057 35.8646C149.093 35.7964 149.13 35.7282 149.17 35.6634C149.186 35.6354 149.462 35.2623 149.265 35.4928C149.378 35.3608 149.498 35.2349 149.623 35.1156C149.677 35.0637 149.732 35.0139 149.787 34.9641C149.588 35.1401 149.767 34.9832 149.819 34.9532C149.992 34.8536 150.156 34.7486 150.338 34.6571C150.303 34.6749 150.124 34.7254 150.297 34.6797C150.416 34.6496 150.533 34.6012 150.653 34.5685C150.749 34.5425 150.846 34.5221 150.943 34.5002C150.964 34.4955 151.206 34.4593 151.024 34.4811C150.822 34.5043 151.14 34.4811 151.185 34.4811C151.286 34.477 151.388 34.4764 151.488 34.4777C151.588 34.4791 152.043 34.5268 151.732 34.4777C151.926 34.5113 152.118 34.5568 152.307 34.6142C152.401 34.6428 152.495 34.6735 152.587 34.7076C152.318 34.6094 152.62 34.7342 152.677 34.7656C152.767 34.8138 152.853 34.865 152.937 34.9191C152.991 34.9532 153.245 35.1579 153.034 34.9716C153.18 35.1013 153.316 35.2404 153.451 35.381C153.658 35.5958 153.519 35.458 153.477 35.398C153.551 35.5017 153.617 35.6129 153.68 35.7234C153.718 35.7916 153.753 35.8599 153.791 35.9281C153.998 36.3012 153.783 35.8026 153.838 36.0236C153.893 36.2446 153.961 36.4534 154.015 36.6689C154.033 36.7372 154.035 36.9596 154.025 36.6921C154.029 36.8027 154.037 36.9125 154.039 37.023C154.042 37.2992 154.028 37.5753 153.999 37.8498C154 38.2837 154.171 38.6994 154.474 39.0062C154.777 39.313 155.188 39.4859 155.616 39.4871C156.042 39.4756 156.447 39.2994 156.747 38.9948C157.048 38.6902 157.222 38.2804 157.234 37.8498C157.38 36.6442 157.159 35.4221 156.601 34.3471C156.042 33.2721 155.172 32.3955 154.107 31.8349C153.035 31.2727 151.817 31.0574 150.62 31.2182C149.422 31.379 148.302 31.9081 147.411 32.734C146.52 33.5598 145.901 34.6426 145.638 35.8361C145.375 37.0296 145.479 38.2761 145.938 39.4073C146.377 40.5276 147.148 41.4827 148.145 42.1414C149.142 42.8001 150.316 43.13 151.506 43.0857C152.876 43.0863 154.207 42.6159 155.279 41.7513C156.302 40.8642 156.975 39.634 157.174 38.2858C157.278 37.8674 157.219 37.4246 157.008 37.0495C156.798 36.6743 156.453 36.3956 156.045 36.2712C155.633 36.1632 155.196 36.2215 154.826 36.4337C154.456 36.6459 154.182 36.9955 154.062 37.4085Z" fill="#211715"/>
<path d="M172.469 16.7705C172.435 16.9704 172.397 17.1682 172.346 17.3647C172.327 17.4377 172.306 17.5107 172.284 17.583C172.271 17.6239 172.168 17.9241 172.238 17.744C172.302 17.5843 172.203 17.8088 172.195 17.8231C172.147 17.9118 172.102 18.0005 172.05 18.0871C171.999 18.1738 171.947 18.2611 171.889 18.3416C172.024 18.1553 171.871 18.3491 171.8 18.4228C171.741 18.4842 171.384 18.7877 171.615 18.6192C171.455 18.7293 171.29 18.8297 171.118 18.9201C171.099 18.9303 170.884 19.0265 171.048 18.9597C171.228 18.886 170.942 18.989 170.9 19.002C170.714 19.0599 170.522 19.0913 170.337 19.1452C170.105 19.2134 170.571 19.1493 170.314 19.1452C170.209 19.1452 170.103 19.1589 169.997 19.1616C169.812 19.1664 169.627 19.1548 169.442 19.1527C169.374 19.1527 169.126 19.1009 169.413 19.1589C169.346 19.1445 169.272 19.1302 169.202 19.1145C168.992 19.0682 168.785 19.0081 168.582 18.9344C168.862 19.0381 168.448 18.8546 168.367 18.8068C168.286 18.7591 168.2 18.6936 168.112 18.6472C167.954 18.5633 168.12 18.6568 168.15 18.6847C168.016 18.5619 167.892 18.4289 167.762 18.3006C167.71 18.2508 167.603 18.0721 167.749 18.3006C167.694 18.2147 167.638 18.1308 167.586 18.0428C167.534 17.9548 167.489 17.864 167.438 17.776C167.406 17.7187 167.334 17.4943 167.419 17.7501C167.364 17.585 167.313 17.4186 167.27 17.2494C167.247 17.1525 167.233 17.0529 167.206 16.9574C167.157 16.7821 167.206 16.9745 167.206 17.0113C167.186 16.7704 167.18 16.5285 167.186 16.2868C167.186 16.2418 167.21 15.9068 167.186 16.1094C167.167 16.2875 167.2 16.0501 167.205 16.0296C167.249 15.8365 167.3 15.6496 167.357 15.46C167.361 15.4436 167.447 15.2178 167.38 15.3767C167.306 15.5541 167.442 15.2642 167.462 15.2267C167.499 15.1584 167.536 15.0902 167.576 15.0254C167.592 14.9974 167.868 14.6243 167.672 14.8549C167.785 14.7228 167.904 14.5969 168.03 14.4776C168.083 14.4258 168.138 14.376 168.194 14.3262C167.991 14.5022 168.173 14.3453 168.225 14.3152C168.398 14.2156 168.562 14.1106 168.743 14.0192C168.708 14.0369 168.531 14.0874 168.703 14.0417C168.823 14.0117 168.94 13.9632 169.06 13.9312C169.156 13.9046 169.253 13.8841 169.35 13.8629C169.371 13.8582 169.612 13.8227 169.431 13.8438C169.229 13.867 169.546 13.8438 169.591 13.8404C169.692 13.8363 169.793 13.8356 169.894 13.8404C169.994 13.8452 170.448 13.8895 170.138 13.8404C170.332 13.874 170.524 13.9195 170.713 13.9769C170.807 14.0055 170.901 14.0362 170.994 14.0703C170.724 13.9721 171.027 14.0969 171.083 14.1283C171.173 14.1765 171.26 14.2277 171.343 14.2818C171.397 14.3159 171.651 14.5206 171.44 14.3343C171.587 14.464 171.721 14.6031 171.858 14.7437C172.064 14.9586 171.925 14.8207 171.883 14.7607C171.956 14.8657 172.023 14.9743 172.085 15.0861C172.124 15.1543 172.16 15.2226 172.197 15.2874C172.405 15.6605 172.189 15.1625 172.244 15.3836C172.3 15.6046 172.367 15.8127 172.422 16.0282C172.439 16.0965 172.442 16.3189 172.431 16.0514C172.436 16.162 172.444 16.2718 172.446 16.3823C172.448 16.6585 172.434 16.9346 172.405 17.2091C172.406 17.6429 172.577 18.0585 172.88 18.3653C173.183 18.672 173.594 18.845 174.022 18.8464C174.448 18.835 174.852 18.6589 175.153 18.3543C175.454 18.0496 175.628 17.6398 175.64 17.2091C175.788 16.0038 175.568 14.7815 175.011 13.706C174.453 12.6304 173.585 11.7531 172.521 11.1914C171.437 10.6542 170.219 10.4549 169.023 10.6187C167.827 10.7825 166.705 11.3022 165.801 12.1117C164.94 12.9529 164.343 14.0326 164.085 15.2157C163.827 16.3988 163.92 17.6326 164.352 18.7625C164.79 19.8828 165.561 20.8381 166.558 21.4968C167.554 22.1555 168.728 22.4853 169.918 22.4409C171.289 22.4414 172.619 21.9709 173.692 21.1065C174.714 20.2192 175.387 18.9891 175.587 17.641C175.691 17.2225 175.631 16.7797 175.421 16.4045C175.21 16.0293 174.865 15.7507 174.457 15.6264C174.044 15.5169 173.604 15.5753 173.233 15.789C172.861 16.0027 172.587 16.3549 172.469 16.7705Z" fill="#211715"/>
<path d="M184.539 120.878C184.251 122.761 183.767 124.607 183.096 126.387C182.431 127.902 181.609 129.341 180.644 130.681C179.728 131.81 178.704 132.844 177.588 133.771C176.302 134.716 174.922 135.524 173.471 136.18C171.767 136.838 169.999 137.313 168.198 137.598C165.97 137.854 163.721 137.858 161.493 137.608C159.714 137.323 157.97 136.852 156.288 136.201C154.785 135.522 153.356 134.684 152.027 133.701C150.874 132.743 149.816 131.672 148.871 130.503C147.893 129.145 147.06 127.687 146.385 126.152C145.724 124.399 145.246 122.58 144.961 120.725C144.733 118.717 144.717 116.689 144.913 114.677C145.194 112.847 145.671 111.054 146.337 109.329C147.027 107.781 147.874 106.309 148.864 104.937C150.864 102.31 153.502 100.252 156.52 98.9614C158.266 98.2699 160.082 97.7768 161.935 97.4913C163.822 97.2903 165.725 97.2903 167.613 97.4913C169.446 97.7766 171.242 98.2645 172.97 98.9464C175.986 100.228 178.624 102.277 180.629 104.894C181.616 106.258 182.463 107.721 183.154 109.26C183.83 111 184.313 112.81 184.596 114.657C184.796 116.727 184.777 118.813 184.539 120.878Z" fill="#FFDA71"/>
<path d="M182.98 120.443C182.36 124.279 181.056 127.986 178.35 130.832C175.724 133.496 172.336 135.256 168.666 135.86C164.755 136.59 160.72 136.2 157.016 134.735C153.556 133.305 150.675 130.734 148.838 127.439C145.139 120.865 145.485 111.508 150.398 105.622C152.859 102.636 156.192 100.518 159.919 99.5733C163.708 98.6292 167.686 98.8128 171.375 100.102C175.312 101.502 178.615 104.297 180.675 107.97C181.699 109.807 182.421 111.8 182.813 113.871C183.202 116.188 183.237 118.551 182.917 120.878C182.92 121.312 183.091 121.727 183.394 122.033C183.696 122.34 184.106 122.513 184.534 122.516C184.96 122.506 185.366 122.331 185.668 122.026C185.969 121.721 186.142 121.31 186.152 120.878C186.644 116.258 186.159 111.542 184.032 107.365C182.107 103.533 179.08 100.381 175.35 98.3255C167.516 94.0161 156.889 95.0032 150.224 101.104C143.375 107.374 141.553 117.33 144.606 126C146.111 130.217 148.977 133.797 152.742 136.159C156.635 138.497 161.119 139.63 165.64 139.418C170.578 139.276 175.64 137.726 179.388 134.359C183.19 130.944 185.285 126.339 186.096 121.314C186.197 120.895 186.137 120.454 185.927 120.079C185.717 119.705 185.373 119.426 184.966 119.3C184.553 119.189 184.114 119.246 183.742 119.46C183.37 119.674 183.097 120.027 182.98 120.443Z" fill="#211715"/>
<path d="M40.9676 80.2711C40.1819 80.3353 39.4171 80.559 38.7185 80.9286C38.02 81.2983 37.402 81.8064 36.9015 82.4228C36.4009 83.0392 36.0279 83.7512 35.8048 84.5165C35.5817 85.2818 35.5129 86.0848 35.6026 86.8775C35.6426 87.6885 35.849 88.4821 36.2085 89.208C36.568 89.9338 37.0728 90.576 37.6909 91.0936C38.3089 91.6112 39.0266 91.9928 39.7983 92.2143C40.57 92.4358 41.3788 92.4923 42.1732 92.3801C45.78 92.0124 47.8853 89.257 47.5274 85.6611C47.4598 84.8659 47.2347 84.0925 46.8654 83.3873C46.4961 82.682 45.9902 82.0593 45.378 81.5562C44.7658 81.0532 44.0597 80.6801 43.302 80.4593C42.5442 80.2385 41.7503 80.1745 40.9676 80.2711Z" fill="#3D8DCC"/>
<path d="M9.0378 47.666C10.0156 47.1688 11.0194 46.7258 12.0448 46.3392L12.3878 46.2136C12.9269 46.0258 12.8458 46.0506 12.1445 46.288C12.3695 46.1929 12.6037 46.1221 12.8434 46.0765C13.4274 45.9082 14.0166 45.7577 14.611 45.6249C15.6801 45.3875 16.7614 45.2101 17.8498 45.0935C18.1524 45.0614 18.4564 45.0443 18.7583 45.0109C19.5474 44.9243 17.4165 45.0396 18.6403 45.0109C19.2468 44.9986 19.8534 44.9911 20.4639 45.0109C21.5577 45.0442 22.6487 45.1401 23.7317 45.2981C24.3419 45.3207 24.9461 45.4288 25.527 45.6194C25.4421 45.5744 24.2897 45.3022 25.2312 45.5655C25.56 45.657 25.8909 45.7395 26.2184 45.8384C27.2 46.1273 28.1658 46.4689 29.1115 46.8617C29.6372 47.08 30.1561 47.3138 30.6683 47.563C30.8704 47.6613 31.0726 47.7854 31.2788 47.8693C29.9984 47.3468 30.9789 47.7158 31.2849 47.8918C32.1738 48.4037 33.0357 48.962 33.8673 49.5646C34.3296 49.8989 34.782 50.2466 35.2246 50.6077C35.4011 50.7523 35.577 50.8983 35.7502 51.047C35.8809 51.1582 36.0097 51.2708 36.1377 51.3847C36.4275 51.6435 36.3116 51.5332 35.79 51.0538C36.1802 51.2182 36.7126 51.9543 37.003 52.2627C37.3175 52.5942 37.6241 52.9333 37.9229 53.2799C38.6669 54.1556 39.3642 55.0708 40.012 56.0216C40.5377 56.7795 39.9601 55.9029 39.8772 55.7999C40.0844 56.0968 40.2749 56.4052 40.448 56.7236C40.6987 57.137 40.944 57.5532 41.1893 57.9693C41.9697 59.29 42.7636 60.5978 43.5959 61.8851C44.9742 64.0697 46.6871 66.0183 48.6704 67.6579C50.9998 69.483 53.6966 70.7681 56.5703 71.4226C59.4441 72.077 62.4247 72.0849 65.3018 71.4455C67.9503 70.8404 70.1041 68.1334 69.4463 65.2982C68.8216 62.6035 66.2116 60.4546 63.3744 61.1027C62.8284 61.231 62.2759 61.3289 61.7193 61.396C61.4947 61.3934 61.2705 61.4139 61.0501 61.4574L61.7712 61.4151C61.6027 61.4192 61.4342 61.4199 61.2671 61.4151C60.7626 61.4085 60.2588 61.376 59.7575 61.3175C59.5352 61.2916 59.3128 61.2609 59.0917 61.2248C58.8707 61.1886 58.6496 61.1477 58.4299 61.102C59.1874 61.2762 59.3685 61.3116 58.9731 61.2084C57.9608 60.8771 56.9655 60.4946 55.9911 60.0623C56.0241 60.0104 57.13 60.7397 56.3024 60.1987C56.1137 60.0766 55.9203 59.9627 55.733 59.8372C55.2154 59.4913 54.743 59.1018 54.2618 58.7074C53.6917 58.2408 55.1547 59.6489 54.3575 58.7695C54.1971 58.5928 54.0307 58.423 53.8723 58.2449C53.4774 57.8001 53.1061 57.3342 52.7509 56.856C52.4301 56.4234 52.1336 55.9752 51.8304 55.5311C51.393 54.8912 52.4928 56.6308 51.8768 55.5959C51.6915 55.2848 51.5001 54.9779 51.3141 54.6675C50.0359 52.401 48.6445 50.2019 47.1453 48.0788C44.1392 44.1178 40.3252 40.859 35.9632 38.5242C31.6011 36.1894 26.7933 34.8335 21.867 34.5487C15.8828 34.2397 9.92016 35.4875 4.54754 38.1732C2.1154 39.4012 0.766911 42.6566 2.10327 45.1917C2.71577 46.4343 3.78153 47.3872 5.07532 47.8489C6.3691 48.3106 7.78955 48.2451 9.03645 47.666H9.0378Z" fill="#3D8DCC"/>
<path d="M40.9676 78.6339C39.2688 78.7837 37.6611 79.4766 36.3769 80.6123C35.2433 81.656 34.4607 83.0326 34.1389 84.5492C33.7998 86.1049 33.9257 87.7276 34.5004 89.2106C35.0751 90.6937 36.0727 91.9702 37.3662 92.8775C38.6866 93.6883 40.2084 94.0998 41.7522 94.0635C43.2961 94.0272 44.7974 93.5447 46.0792 92.6729C47.3279 91.738 48.2688 90.4435 48.7788 88.9586C49.2889 87.4736 49.3443 85.8674 48.9379 84.35C48.4944 82.5953 47.4495 81.0572 45.9897 80.01C44.5299 78.9628 42.75 78.4746 40.9676 78.6325C40.542 78.6434 40.1369 78.8194 39.8358 79.1241C39.5348 79.4288 39.361 79.839 39.3502 80.2698C39.3536 80.703 39.525 81.1175 39.8276 81.4238C40.1302 81.7301 40.5397 81.9037 40.9676 81.9071C41.3096 81.8739 41.6535 81.8659 41.9967 81.8832C42.1065 81.8893 42.2177 81.8975 42.3269 81.9105C42.0034 81.8723 42.521 81.9548 42.5378 81.9589C42.7944 82.0201 43.0477 82.0948 43.2966 82.1827C43.7421 82.3341 43.0729 82.0374 43.4806 82.2652C43.6154 82.3403 43.7502 82.4085 43.885 82.4883C44.0197 82.5681 44.1417 82.6534 44.2671 82.7414C44.2118 82.7025 44.0602 82.5565 44.2994 82.7673C44.5103 82.9529 44.7038 83.1494 44.8958 83.3533C44.9443 83.4038 45.1485 83.6637 44.978 83.4372C45.0697 83.5594 45.1546 83.6883 45.2348 83.8179C45.2887 83.9052 45.3406 83.9939 45.3905 84.084C45.4188 84.1351 45.6755 84.6802 45.5576 84.3944C45.656 84.6383 45.7371 84.8891 45.8002 85.1448C45.8332 85.2737 45.8588 85.4047 45.8865 85.535C45.9013 85.6073 45.9384 85.9498 45.91 85.6612C45.9376 85.9359 45.9506 86.2119 45.9491 86.488C45.9491 86.6477 45.9417 86.808 45.9303 86.9656C45.9228 87.07 45.9134 87.1743 45.9006 87.278C45.9208 87.1232 45.9215 87.1054 45.9006 87.2235C45.8514 87.4941 45.7861 87.7616 45.7052 88.0244C45.6755 88.1178 45.6418 88.2092 45.6095 88.302C45.4612 88.7304 45.7658 88.0537 45.5421 88.4425C45.4244 88.6486 45.306 88.8544 45.1869 89.0599C44.9659 89.4399 45.3891 88.8553 45.102 89.1821C45.0084 89.2878 44.9167 89.3956 44.8183 89.4965C44.7509 89.5648 44.2455 89.9925 44.5023 89.8022C44.2879 89.9609 44.0627 90.1041 43.8283 90.2306C43.7192 90.2893 43.6086 90.3452 43.4961 90.397C43.8048 90.2538 43.3465 90.4489 43.3182 90.4585C43.0163 90.5628 42.7117 90.629 42.3997 90.7034C41.905 90.8227 42.558 90.6958 42.2548 90.732C42.12 90.7484 41.9825 90.7602 41.8423 90.7675C41.5761 90.7832 41.3093 90.7832 41.0431 90.7675C41.008 90.7675 40.5039 90.6993 40.8577 90.7566C40.7331 90.7368 40.6091 90.7122 40.4864 90.6843C40.1969 90.6191 39.9127 90.5313 39.6366 90.4216C39.3853 90.3206 39.9466 90.6058 39.5578 90.3773C39.4331 90.3043 39.3024 90.2408 39.179 90.1665C39.0968 90.116 39.0187 90.0594 38.9371 90.0096C38.557 89.7797 39.1393 90.2142 38.807 89.9154C38.626 89.7561 38.4533 89.5873 38.2895 89.4099C38.2652 89.3833 37.9714 89.0088 38.1742 89.2857C38.0866 89.1664 38.0044 89.0422 37.9269 88.916C37.4016 88.067 37.1442 87.0761 37.189 86.0753C37.1924 85.9436 37.2018 85.812 37.2119 85.6803C37.224 85.5603 37.2207 85.5759 37.2011 85.726C37.2173 85.623 37.2355 85.5214 37.2564 85.419C37.3216 85.1166 37.4067 84.819 37.5111 84.5281C37.6648 84.0846 37.3615 84.7634 37.59 84.3562C37.6641 84.2197 37.7295 84.0833 37.8076 83.953C37.8858 83.8227 37.9701 83.6951 38.0556 83.5682C38.3016 83.2032 37.8703 83.734 38.179 83.4188C38.5183 83.0029 38.9376 82.6612 39.4115 82.4146C39.5505 82.3358 39.6934 82.2641 39.8395 82.1997C39.5827 82.3096 40.01 82.1465 40.0612 82.1315C40.2202 82.0797 40.3811 82.0342 40.5437 81.9951C40.6064 81.9801 41.1839 81.8846 40.9656 81.9098C41.3906 81.8973 41.7949 81.7208 42.0955 81.4164C42.3962 81.112 42.5706 80.7028 42.583 80.2725C42.5808 79.8392 42.4101 79.4241 42.1077 79.1174C41.8053 78.8106 41.3957 78.6369 40.9676 78.6339Z" fill="#211715"/>
<path d="M9.8539 49.0796C10.9336 48.5499 12.0404 48.0788 13.1695 47.6681C13.5769 47.543 13.9213 47.2643 14.1315 46.8895C14.3417 46.5147 14.4017 46.0725 14.299 45.6543C14.1807 45.2384 13.9063 44.8858 13.5345 44.6722C13.1627 44.4585 12.723 44.4006 12.3096 44.5109C12.1075 44.5716 11.9127 44.6426 11.7146 44.7094L12.9613 47.7022C13.1278 47.6279 13.8084 47.5044 14.1534 47.4157C14.8202 47.2456 15.4916 47.0994 16.1678 46.977C17.2412 46.8981 18.3096 46.7597 19.3681 46.5623C19.7017 46.4584 19.9935 46.2491 20.2008 45.9649C20.4081 45.6808 20.52 45.3369 20.52 44.9837C20.52 44.6304 20.4081 44.2865 20.2008 44.0024C19.9935 43.7183 19.7017 43.5089 19.3681 43.405C18.5595 43.1322 17.2602 43.4344 16.8585 44.1882C16.7212 44.438 16.6501 44.7194 16.6519 45.0052C16.6538 45.291 16.7286 45.5714 16.8691 45.8193C17.0096 46.0672 17.2111 46.2741 17.4539 46.4199C17.6967 46.5658 17.9726 46.6456 18.2549 46.6516C19.3668 46.7321 20.4936 46.6298 21.6109 46.7083C22.791 46.6899 23.9668 46.8555 25.0971 47.1994L25.957 44.0415C25.608 43.908 25.24 43.8325 24.8672 43.8178C22.95 43.8266 22.7936 46.4006 24.4373 47.0343C25.3942 47.4027 26.428 47.5917 27.3964 47.9403C28.4558 48.3217 29.4465 48.8094 30.4661 49.2815L31.7121 46.2894C31.6077 46.2464 30.9938 45.9428 31.4581 46.185L30.212 49.1778C30.4937 49.2774 29.8643 48.9732 30.1884 49.1649C30.2774 49.2181 30.3792 49.2556 30.4715 49.3013C31.146 49.6718 31.7985 50.0818 32.4258 50.5293C33.372 51.1893 34.2806 51.9032 35.1471 52.6673C35.3769 52.8872 35.6647 53.0351 35.9758 53.0931C36.2868 53.151 36.6078 53.1166 36.8999 52.994C37.1921 52.8714 37.4429 52.6658 37.6222 52.402C37.8014 52.1382 37.9014 51.8276 37.9101 51.5075C37.878 51.1814 37.7742 50.8666 37.6062 50.5864C37.4383 50.3062 37.2106 50.0675 36.9397 49.888L34.9759 52.466C35.2703 52.7102 35.5332 52.991 35.7583 53.3017C36.131 53.7226 36.5212 54.1272 36.8857 54.5556C37.6803 55.4902 38.3259 56.534 39.0941 57.4836C40.2849 58.9592 42.5041 57.0743 41.6348 55.4998C41.5283 55.317 41.4111 55.1409 41.2837 54.9724C41.0589 54.6069 40.7043 54.3424 40.2929 54.2331C39.8815 54.1239 39.4443 54.1783 39.0712 54.3851C38.7036 54.6061 38.4364 54.9645 38.3274 55.3831C38.2184 55.8017 38.2761 56.2468 38.4883 56.6227C39.7249 58.3739 40.7014 60.342 41.8531 62.1546C42.9435 63.9189 44.2104 65.5649 45.6338 67.0665C48.3687 69.8976 51.8249 71.9064 55.6191 72.87C57.4525 73.3334 59.3363 73.5614 61.226 73.5487C63.0567 73.6038 64.8824 73.3277 66.6173 72.7335C70.2382 71.2791 72.1669 67.2507 70.5536 63.5688C70.1539 62.6635 69.5755 61.8503 68.8541 61.1794C68.1327 60.5085 67.2835 59.9939 66.3585 59.6673C65.3352 59.3293 64.2435 59.2617 63.1871 59.4709C62.6978 59.5595 62.2153 59.7042 61.7193 59.7547C61.3501 59.7613 60.9822 59.8014 60.6201 59.8747C58.9152 60.3652 59.18 63.2005 61.0501 63.0906L61.7712 63.0483C63.8327 62.9276 63.8697 59.7465 61.7712 59.7738C60.7947 59.7925 59.8189 59.7074 58.8599 59.52C56.8382 59.1107 55.9553 62.2106 58 62.6772C58.514 62.8555 59.0619 62.9106 59.6005 62.8382C61.1869 62.4514 61.0926 60.1183 59.6005 59.681C59.1018 59.5343 58.6139 59.3508 58.1247 59.1727C57.7877 59.0499 57.4508 58.9265 57.1185 58.7962C56.9952 58.7484 56.8705 58.702 56.7492 58.6488C57.1677 58.8323 56.8981 58.717 56.8166 58.6577L57.3968 59.2451L57.3914 59.2328L55.9944 61.6962H56.0234L55.2073 61.4724C55.4104 61.5708 55.6068 61.6829 55.795 61.8081C57.5835 62.9064 59.1766 60.1101 57.4272 58.981C56.9628 58.6809 56.4898 58.3964 56.0483 58.0621C55.6151 57.6332 55.1113 57.2839 54.5597 57.0299C54.251 56.9523 53.9266 56.9675 53.6263 57.0737C53.326 57.1799 53.0627 57.3724 52.8689 57.6276C52.675 57.8829 52.5588 58.1899 52.5346 58.511C52.5105 58.8321 52.5793 59.1533 52.7327 59.4354C52.9271 59.7781 53.1973 60.0704 53.5221 60.2895C53.847 60.5086 54.2176 60.6485 54.6048 60.6981C54.8879 60.6939 55.165 60.6152 55.4089 60.4698C55.6528 60.3243 55.8552 60.1171 55.996 59.8685C56.1369 59.6199 56.2114 59.3385 56.2123 59.052C56.2132 58.7654 56.1405 58.4835 56.0012 58.234C55.5332 57.5809 55.0123 56.9685 54.4438 56.403C53.8838 55.7065 53.4551 54.9022 52.8722 54.2261C51.794 52.979 49.7217 54.3011 50.1692 55.819C50.2823 56.1581 50.4526 56.4748 50.6726 56.755C50.8025 56.9652 50.9768 57.1437 51.183 57.2775C51.3892 57.4113 51.6222 57.4972 51.8651 57.5289C52.108 57.5606 52.3549 57.5374 52.5879 57.4609C52.8209 57.3844 53.0342 57.2566 53.2125 57.0866C53.4622 56.8288 53.622 56.4956 53.6676 56.1376C53.7132 55.7795 53.6422 55.4162 53.4653 55.1027C52.945 54.0692 52.267 53.0909 51.676 52.0976C50.9347 50.8451 50.1786 49.5974 49.3564 48.3953C47.8732 46.2093 46.1493 44.2009 44.2179 42.409C40.3825 38.8876 35.855 36.2268 30.9324 34.6012C25.7706 32.9282 20.3003 32.466 14.9358 33.2498C12.0813 33.6401 9.28481 34.3833 6.60903 35.4629C4.18969 36.4466 1.79395 37.5095 0.64628 40.0493C0.0427164 41.3181 -0.149651 42.7474 0.096614 44.1334C0.342879 45.5194 1.0152 46.7913 2.01768 47.7677C3.02966 48.7796 4.32656 49.449 5.7299 49.684C7.13323 49.9189 8.574 49.7078 9.8539 49.0796C10.2216 48.8581 10.4886 48.4991 10.5972 48.0801C10.7057 47.661 10.6472 47.2156 10.4341 46.8399C10.211 46.4724 9.85643 46.2063 9.44425 46.097C9.03207 45.9877 8.59411 46.0437 8.22169 46.2532C7.46985 46.5625 6.63764 46.6093 5.85657 46.3863C5.0755 46.1633 4.39011 45.6832 3.90867 45.0219C3.4495 44.4076 3.20468 43.6564 3.2126 42.8862C3.22053 42.1159 3.48076 41.3701 3.95248 40.7656C4.58879 40.0189 5.40639 39.4529 6.32464 39.1236C7.43889 38.6099 8.58255 38.1643 9.74944 37.7892C12.1101 37.0132 14.5491 36.5068 17.0209 36.2795C21.4572 35.8838 25.9265 36.4051 30.1576 37.8117C34.3888 39.2182 38.2933 41.4808 41.6341 44.4618C43.4907 46.1196 45.1447 47.9962 46.5611 50.0517C47.3832 51.2544 48.1373 52.5015 48.8813 53.754C49.4717 54.748 50.1503 55.7256 50.6699 56.7591L50.9226 54.7753L53.4632 55.1068C53.2853 54.8708 53.0771 54.2466 53.2853 54.9533L50.5802 56.5476C50.0411 55.9255 50.8444 56.9706 50.9779 57.1616C51.2946 57.6146 51.6255 58.0573 51.9665 58.4919C52.236 58.833 52.5144 59.1741 52.8075 59.4947C52.9423 59.6414 53.0771 59.7894 53.2119 59.9313C53.3466 60.0732 53.4895 60.4143 53.2024 59.8931L54.5994 57.4297H54.5866L55.4027 57.6535C55.9237 58.0219 55.5766 57.8022 55.4701 57.678C55.3104 57.4938 55.2612 57.3185 55.52 57.7892L53.6937 60.1947C53.0459 59.7854 52.9335 59.7426 53.3568 60.0664C53.5167 60.1969 53.6773 60.3257 53.8386 60.4525C54.1082 60.6661 54.3777 60.8803 54.6601 61.0795C55.0274 61.3394 55.4122 61.5714 55.7902 61.8149L57.4224 58.9879C56.9989 58.6821 56.5062 58.489 55.9897 58.4264C54.6493 58.3289 54.1324 59.859 54.5934 60.8898C54.9404 61.6655 56.1501 61.9234 56.8624 62.186C57.4831 62.4166 58.1044 62.6561 58.7393 62.8416V59.6851H58.7325H59.5924C59.3465 59.6366 59.1025 59.578 58.8585 59.5227L57.9986 62.6799C59.2404 62.9365 60.5052 63.0609 61.7725 63.051V59.7765L61.0514 59.8188L61.4814 63.0347C61.1 63.1445 61.7146 63.0279 61.8595 63.0149C62.28 62.9753 62.7045 62.9023 63.1197 62.8239C63.7502 62.6413 64.412 62.5978 65.0605 62.6963C65.6044 62.8393 66.1106 63.1016 66.5432 63.4646C66.9758 63.8275 67.3244 64.2824 67.5641 64.7968C68.73 67.1702 66.9313 69.4228 64.6164 69.9222C61.6289 70.5305 58.5387 70.3765 55.6246 69.4743C52.7105 68.572 50.064 66.9498 47.9237 64.7538C46.6199 63.3712 45.4634 61.8536 44.4733 60.2261C43.3856 58.5021 42.4576 56.6329 41.2837 54.9724L38.4883 56.6227C38.6155 56.7912 38.7325 56.9673 38.8387 57.15L41.378 55.1682C41.812 55.7058 41.126 54.7835 41.0519 54.6798C40.8699 54.4246 40.685 54.1713 40.4972 53.9198C40.0107 53.2697 39.5106 52.6298 38.9776 52.0171C38.2915 51.2285 37.528 50.1493 36.6054 49.6383C35.0433 48.7774 33.2412 50.9181 34.6463 52.2102C34.8121 52.363 34.9793 52.5145 35.143 52.67L34.6713 51.5103L37.4343 50.3505C35.5541 48.7201 33.4454 46.8522 31.0726 46.0138C29.3481 45.4046 28.2004 48.1573 29.8265 49.0066C30.1493 49.1751 30.5153 49.302 30.8529 49.4405C32.5377 50.1329 33.7635 47.2192 32.099 46.4483C30.921 45.9026 29.7645 45.3364 28.5454 44.8793C27.4827 44.4843 26.3505 44.2735 25.2979 43.8676L24.8672 47.0923C24.1677 47.0923 24.8491 47.1073 25.1004 47.1994C25.5139 47.3108 25.954 47.2534 26.3261 47.0396C26.6982 46.8258 26.9724 46.4726 27.0898 46.0561C27.1926 45.6377 27.1328 45.1954 26.9226 44.8204C26.7124 44.4455 26.3679 44.1666 25.9603 44.0415C25.3792 43.8438 24.773 43.7319 24.1603 43.7093C23.419 43.6261 22.6845 43.5197 21.9418 43.4583C20.7139 43.358 19.4807 43.4658 18.2582 43.3771L19.6519 45.8439L18.6855 46.5943C18.3175 46.6462 18.3108 46.7144 18.6242 46.6264C18.8614 46.5582 19.1417 46.7792 18.5069 46.5664V43.405C19.0966 43.2256 18.3479 43.4091 18.1511 43.4282C17.8323 43.4589 17.5142 43.493 17.1968 43.5333C16.4555 43.6281 15.7142 43.738 14.9837 43.8799C13.7321 44.0729 12.5057 44.4066 11.3271 44.8745C9.6551 45.6201 10.8439 48.4513 12.5731 47.8673C12.7713 47.7991 12.9687 47.7309 13.1682 47.6681L12.3083 44.5109C10.9166 45.0182 9.55252 45.5998 8.22169 46.2532C7.85462 46.4754 7.58824 46.8344 7.47975 47.2531C7.37126 47.6719 7.42932 48.117 7.64146 48.4929C7.86397 48.861 8.21859 49.1277 8.63101 49.2371C9.04344 49.3464 9.48167 49.29 9.8539 49.0796Z" fill="#211715"/>
<path d="M209.152 86.5582C208.379 86.3924 207.58 86.3859 206.804 86.539C206.028 86.6921 205.29 87.0018 204.635 87.4495C203.979 87.8973 203.42 88.4739 202.989 89.1452C202.558 89.8165 202.265 90.5686 202.128 91.3568C201.937 92.1481 201.911 92.971 202.051 93.7731C202.191 94.5752 202.495 95.3389 202.943 96.0155C203.391 96.6922 203.974 97.267 204.653 97.7033C205.333 98.1397 206.094 98.428 206.89 98.5499C210.462 99.2403 213.265 97.2005 213.936 93.6381C214.096 92.854 214.098 92.0455 213.942 91.2607C213.786 90.4759 213.475 89.7309 213.029 89.0702C212.583 88.4095 212.009 87.8465 211.343 87.4149C210.677 86.9834 209.932 86.692 209.152 86.5582Z" fill="#FFDA71"/>
<path d="M223.854 118.369C224.425 117.72 225.009 117.085 225.615 116.471C225.896 116.186 226.181 115.906 226.47 115.63C226.634 115.472 226.8 115.317 226.967 115.163C227.384 114.784 227.302 114.856 226.723 115.381C226.669 115.209 228.362 114.028 228.552 113.883C229.172 113.408 229.809 112.955 230.46 112.523C231.112 112.092 231.774 111.688 232.447 111.311C232.639 111.203 232.833 111.097 233.028 110.993C232.322 111.35 232.219 111.403 232.718 111.153C233.018 111.012 233.314 110.866 233.616 110.731C235.08 110.07 236.597 109.537 238.151 109.136C238.312 109.093 238.475 109.052 238.637 109.014C239.187 108.888 239.072 108.912 238.293 109.087C238.791 108.921 239.311 108.828 239.835 108.811C240.739 108.667 241.647 108.553 242.558 108.47C244.384 108.32 246.216 108.274 248.047 108.333C248.645 108.361 248.57 108.355 247.82 108.318C248.016 108.33 248.212 108.345 248.408 108.361C248.865 108.398 249.321 108.442 249.776 108.493C250.687 108.595 251.595 108.727 252.498 108.887C254.429 109.234 256.336 109.708 258.206 110.306C259.4 110.685 261.143 110.164 262.132 109.484C263.275 108.687 264.065 107.47 264.335 106.092C264.781 102.975 262.983 100.78 260.171 99.8877C251.895 97.2694 243.066 97.0097 234.653 99.1373C227.336 101.02 220.926 105.755 215.959 111.394C214.133 113.466 214.267 117.102 216.46 118.878C217.518 119.778 218.879 120.229 220.258 120.134C221.637 120.039 222.926 119.407 223.854 118.371V118.369Z" fill="#FFDA71"/>
<path d="M209.586 84.9797C207.999 84.6399 206.346 84.8209 204.868 85.4965C203.389 86.172 202.162 87.307 201.364 88.7366C200.605 90.1386 200.277 91.7379 200.421 93.3299C200.565 94.9219 201.175 96.4342 202.173 97.6734C203.219 98.8276 204.569 99.6551 206.064 100.058C207.559 100.462 209.137 100.424 210.612 99.9492C212.069 99.4014 213.329 98.423 214.23 97.1409C215.13 95.8588 215.629 94.3323 215.662 92.7595C215.723 90.9448 215.146 89.1669 214.034 87.7426C212.921 86.3183 211.345 85.3401 209.586 84.9824C209.173 84.8775 208.736 84.9377 208.365 85.1506C207.995 85.3635 207.72 85.7128 207.597 86.1258C207.487 86.5443 207.544 86.9898 207.755 87.3664C207.966 87.743 208.315 88.0206 208.726 88.1396C209.063 88.2115 209.395 88.3026 209.722 88.4125C209.754 88.4227 210.009 88.5305 209.797 88.4364C209.945 88.5046 210.09 88.5783 210.232 88.6581C210.465 88.7855 210.688 88.9308 210.898 89.0927C210.653 88.8989 211.039 89.2291 211.049 89.24C211.162 89.3455 211.271 89.4558 211.375 89.5709C211.389 89.5866 211.706 89.9802 211.51 89.7169C211.571 89.7981 211.628 89.884 211.684 89.9693C211.836 90.2051 211.973 90.451 212.092 90.7054C212.213 90.9619 211.988 90.3541 212.133 90.8104C212.18 90.9578 212.231 91.1017 212.273 91.2511C212.3 91.3507 212.325 91.451 212.347 91.5513C212.368 91.6516 212.389 91.756 212.406 91.8563C212.387 91.6784 212.387 91.6884 212.406 91.8863C212.427 92.1493 212.434 92.4132 212.428 92.677C212.423 92.8134 212.413 92.9437 212.4 93.0774C212.372 93.3728 212.491 92.709 212.378 93.2057C212.316 93.4785 212.262 93.746 212.182 94.0113C212.136 94.1655 212.082 94.3156 212.029 94.467C211.958 94.649 211.952 94.6631 212.012 94.5093C211.981 94.5776 211.945 94.6458 211.913 94.7174C211.778 94.9603 211.643 95.1949 211.498 95.431C211.471 95.4774 211.316 95.682 211.492 95.4542C211.404 95.5681 211.308 95.6773 211.211 95.7837C211.048 95.9574 210.876 96.1212 210.694 96.2742C210.964 96.0443 210.608 96.3301 210.569 96.3561C210.451 96.4347 210.331 96.5084 210.207 96.5771C210.083 96.6453 209.956 96.7094 209.827 96.7688C210.101 96.6439 209.875 96.747 209.817 96.7688C209.56 96.8472 209.307 96.9202 209.047 96.985C208.968 97.0048 208.642 97.0485 208.961 97.0096C208.809 97.028 208.656 97.0389 208.504 97.0451C208.186 97.0566 207.868 97.0465 207.551 97.0151C207.827 97.041 207.471 97.0028 207.404 96.9905C207.269 96.9659 207.135 96.938 207 96.9052C206.738 96.8425 206.486 96.7585 206.232 96.6719C205.775 96.5157 206.466 96.8152 206.046 96.5928C205.934 96.5327 205.82 96.4775 205.709 96.4147C205.598 96.352 205.492 96.2885 205.387 96.2196C205.304 96.1655 205.222 96.1091 205.142 96.0504C205.254 96.1414 205.266 96.1512 205.179 96.0798C204.973 95.9088 204.78 95.723 204.6 95.5238C204.533 95.4555 204.473 95.3778 204.412 95.3034C204.632 95.5763 204.345 95.1997 204.325 95.167C204.19 94.9623 204.083 94.7474 203.969 94.5312C203.759 94.13 204.037 94.815 203.907 94.3777C203.864 94.2344 203.813 94.0952 203.772 93.9499C203.746 93.8531 203.617 93.1647 203.658 93.4847C203.62 93.1679 203.606 92.8485 203.618 92.5296C203.618 92.4204 203.626 92.3106 203.634 92.2015C203.634 92.1919 203.71 91.6557 203.657 91.9668C203.711 91.6449 203.787 91.3273 203.886 91.0165C204.208 90.0899 204.82 89.2947 205.628 88.7509C205.757 88.669 205.89 88.5919 206.025 88.521C206.043 88.5114 206.484 88.3163 206.199 88.4289C206.491 88.3125 206.791 88.2212 207.098 88.156C207.121 88.1506 207.63 88.0776 207.3 88.113C207.462 88.0953 207.626 88.0857 207.79 88.0816C207.954 88.0776 208.127 88.0816 208.292 88.0912C208.406 88.098 208.52 88.1076 208.629 88.1198C208.487 88.1007 208.516 88.1083 208.719 88.141C209.132 88.2442 209.569 88.1832 209.939 87.9705C210.309 87.7578 210.584 87.4097 210.708 86.9976C210.82 86.5794 210.765 86.1334 210.555 85.7559C210.345 85.3784 209.997 85.0996 209.586 84.9797Z" fill="#211715"/>
<path d="M224.997 119.526C226.068 118.318 227.194 117.181 228.372 116.082C229.913 114.645 227.638 112.385 226.084 113.767C225.915 113.917 225.747 114.071 225.579 114.223L228.283 115.816C228.262 115.946 227.768 116.434 228.035 116.315C228.109 116.265 228.177 116.205 228.237 116.139C228.351 116.04 228.396 116.01 228.641 115.828C228.961 115.591 229.284 115.359 229.603 115.12C230.95 114.111 232.369 113.204 233.848 112.407C235.696 111.41 234.068 108.644 232.216 109.579C232.01 109.683 231.8 109.784 231.598 109.892C229.753 110.912 231.376 113.631 233.23 112.72C235.202 111.757 237.273 111.018 239.406 110.517C239.816 110.396 240.164 110.119 240.375 109.742C240.586 109.366 240.644 108.921 240.535 108.503C240.413 108.089 240.137 107.74 239.767 107.527C239.396 107.314 238.959 107.254 238.546 107.359C238.317 107.398 238.089 107.46 237.863 107.51L239.11 110.503C239.17 110.477 239.514 110.489 239.635 110.476C240.077 110.427 240.515 110.349 240.956 110.289C241.809 110.172 242.667 110.091 243.526 110.036C245.163 109.933 246.806 109.931 248.446 109.988C250.541 110.062 250.505 106.859 248.446 106.714C248.238 106.7 248.029 106.691 247.821 106.681C245.731 106.574 245.758 109.811 247.821 109.956C249.571 110.074 251.311 110.306 253.032 110.65C253.993 110.843 254.947 111.071 255.894 111.332C256.827 111.661 257.789 111.903 258.766 112.056C260.336 112.158 261.893 111.707 263.173 110.779C264.452 109.851 265.374 108.503 265.784 106.965C266.193 105.427 266.063 103.792 265.417 102.34C264.771 100.887 263.649 99.7053 262.24 98.9955C260.678 98.2653 259.034 97.7324 257.344 97.4087C255.503 96.9772 253.64 96.649 251.764 96.4257C244.682 95.5566 236.957 96.133 230.302 98.8686C227.189 100.151 224.258 101.847 221.585 103.91C220.19 104.979 218.854 106.125 217.583 107.343C216.342 108.44 215.218 109.665 214.229 110.999C212.399 113.722 212.756 117.897 215.317 120.038C216.689 121.222 218.457 121.828 220.257 121.734C222.058 121.64 223.754 120.851 224.998 119.53C226.417 117.991 224.135 115.67 222.711 117.215C222.372 117.598 221.961 117.907 221.502 118.126C221.043 118.344 220.545 118.467 220.038 118.487C219.531 118.507 219.025 118.423 218.55 118.241C218.076 118.059 217.642 117.782 217.276 117.427C215.893 116.075 216.074 113.726 217.285 112.348C221.005 108.009 225.613 104.541 230.788 102.183C236.292 99.7787 242.598 99.1006 248.54 99.4164C251.678 99.5851 254.79 100.084 257.825 100.906C259.806 101.441 262.129 102.044 262.684 104.266C263.273 106.623 261.127 109.294 258.637 108.728C256.828 108.319 255.082 107.705 253.25 107.368C251.454 107.037 249.642 106.807 247.821 106.681V109.956C248.029 109.967 248.238 109.975 248.446 109.989V106.715C246.591 106.639 244.733 106.67 242.882 106.809C241.921 106.887 240.963 107.004 240.009 107.144C239.146 107.207 238.294 107.386 237.477 107.676C237.139 107.876 236.884 108.195 236.762 108.572C236.64 108.949 236.659 109.358 236.816 109.722C236.97 110.085 237.247 110.38 237.596 110.554C237.946 110.728 238.346 110.769 238.724 110.671C238.951 110.62 239.177 110.559 239.406 110.519L238.546 107.362C236.144 107.945 233.813 108.795 231.595 109.897L233.227 112.725C233.429 112.614 233.64 112.515 233.845 112.412L232.213 109.584C230.619 110.464 229.088 111.456 227.63 112.552C226.857 113.122 225.332 113.886 225.164 114.95C225.082 115.296 225.112 115.659 225.25 115.986C225.388 116.313 225.626 116.587 225.93 116.766C226.234 116.945 226.586 117.02 226.935 116.979C227.284 116.939 227.611 116.786 227.868 116.543C228.036 116.391 228.204 116.237 228.373 116.087L226.086 113.771C224.908 114.87 223.782 116.008 222.711 117.216C221.323 118.775 223.603 121.099 224.997 119.526Z" fill="#211715"/>
</g>
<defs>
<clipPath id="clip0_111_24">
<rect width="266" height="200" fill="white"/>
</clipPath>
</defs>
</svg>
