<svg width="151" height="150" viewBox="0 0 151 150" fill="none" xmlns="http://www.w3.org/2000/svg">
<path d="M146.695 88.9197V61.0798H130.525C129.235 55.5627 127.152 50.2614 124.343 45.3408C128.265 41.4173 132.758 36.9257 135.541 34.1425L115.853 14.4595L104.804 25.5076C99.8497 22.6836 94.4925 20.6351 88.9184 19.4332V3.30225H61.0784V19.6408C55.5713 20.8952 50.2658 22.9106 45.3148 25.6291C41.4528 21.7671 36.8479 17.169 34.1453 14.4595L14.4582 34.1453C17.1785 36.8643 21.5704 41.2561 25.4065 45.0936C22.578 50.0811 20.5299 55.4723 19.3335 61.0798H3.30225V88.9197H19.4906C20.7278 94.4802 22.7419 99.8388 25.4734 104.838L14.4582 115.853L34.1453 135.539L44.957 124.725C49.984 127.553 55.4242 129.573 61.0784 130.711V146.689H88.9184V130.028C94.1633 128.531 99.1897 126.354 103.869 123.552L115.853 135.536L135.535 115.853L123.973 104.291C126.899 99.5302 129.07 94.345 130.411 88.9197H146.695Z" fill="#C6C6C6"/>
<path d="M73.8857 53.2878C76.8556 53.0327 79.8462 53.3957 82.6688 54.354C85.4914 55.3122 88.0849 56.845 90.2857 58.8555C98.1518 66.3925 99.0613 80.6484 92.1388 89.0607C84.692 98.1122 69.3504 99.4178 60.5475 91.6855C51.7445 83.9532 50.6452 69.6645 58.4239 61.0009C62.4169 56.5669 67.9418 53.8108 73.8857 53.2878Z" fill="white"/>
<path d="M73.8853 56.5652C78.3601 56.1989 82.8241 57.39 86.5216 59.937C89.494 62.2267 91.6413 65.4208 92.6396 69.0376C94.7236 76.1034 93.2077 84.4311 87.33 89.2491C84.4864 91.4472 81.1127 92.8553 77.5501 93.3308C73.9876 93.8064 70.3626 93.3325 67.042 91.9572C60.1783 89.0033 56.289 81.7039 56.4925 74.4046C56.739 69.8284 58.6381 65.4972 61.8369 62.2155C65.0357 58.9338 69.3169 56.9246 73.8853 56.5611C74.7482 56.541 75.5702 56.1892 76.1806 55.5789C76.7909 54.9685 77.1427 54.1465 77.1628 53.2836C77.156 52.4164 76.8085 51.5867 76.1953 50.9735C75.5821 50.3603 74.7524 50.0128 73.8853 50.0061C62.9397 50.7763 52.7465 58.7571 50.5 69.6904C49.4391 74.6405 49.8711 79.7941 51.7414 84.4985C53.6116 89.2029 56.8359 93.2464 61.0059 96.1169C69.0891 101.417 80.398 101.204 88.6055 96.3081C97.5955 90.948 101.255 80.5022 99.6672 70.4497C98.8528 64.9818 96.2215 59.9472 92.1972 56.1569C87.1431 51.7725 80.561 49.5636 73.8853 50.0115C69.6832 50.2013 69.66 56.7564 73.8853 56.5652Z" fill="#211715"/>
<path d="M149.972 86.4809V68.9734C149.972 66.7883 150.349 64.1486 149.759 62.0086C148.499 57.4146 143.901 57.8092 140.187 57.8092H130.526L133.687 60.2155C132.295 54.4313 130.102 48.8696 127.173 43.6912L126.661 47.6625C128.789 45.533 130.919 43.4035 133.049 41.2741C135.057 39.2652 137.815 37.2686 137.811 34.1441C137.807 31.0195 135.034 29.0092 133.032 27.0045L127.077 21.0503L121.918 15.8909C120.186 14.1593 118.538 12.1859 115.854 12.1859C112.761 12.1859 110.773 14.9172 108.782 16.9015L102.486 23.1903L106.457 22.6781C101.249 19.7348 95.6352 17.5765 89.7967 16.2733L92.2029 19.4334V6.9159C92.2029 3.55778 90.6884 0.397694 86.9247 0.0644773C85.7776 -0.0365802 84.6031 0.024885 83.4574 0.024885H67.8331C66.4333 0.024885 65.0212 -0.0311063 63.6228 0.024885C62.8387 0.0335605 62.0643 0.198707 61.3449 0.51064C60.6254 0.822573 59.9756 1.27501 59.4333 1.84142C58.8911 2.40783 58.4674 3.07681 58.1871 3.80913C57.9068 4.54145 57.7756 5.32236 57.8011 6.10607C57.6918 10.6127 57.8011 15.133 57.8011 19.6409L60.2073 16.4808C54.433 17.8354 48.8673 19.9607 43.6599 22.7997L47.6325 23.3118L41.2741 16.9534C39.2707 14.95 37.2687 12.1873 34.1482 12.1845C31.4497 12.1845 29.8218 14.147 28.082 15.8868L23.1138 20.8564L17.3672 26.6016C15.3911 28.5777 12.4509 30.6658 12.2324 33.677C11.9988 36.9409 14.5089 38.8309 16.6024 40.9149C18.7674 43.0781 20.931 45.2417 23.0933 47.4058L22.5812 43.4331C19.6329 48.6775 17.4752 54.3285 16.1777 60.2032L19.3378 57.797H6.84626C3.5059 57.797 0.392243 59.3593 0.064489 63.0738C-0.0447623 64.3029 0.024885 65.5552 0.024885 66.7856V82.16C0.024885 83.5598 -0.0311063 84.9718 0.024885 86.3703C0.0335321 87.155 0.198935 87.9302 0.511377 88.6502C0.82382 89.3701 1.277 90.0204 1.84429 90.5627C2.41158 91.1051 3.08155 91.5286 3.81482 91.8084C4.5481 92.0882 5.32989 92.2186 6.11428 92.192C10.569 92.2889 15.0346 92.192 19.4907 92.192L16.3306 89.798C17.6682 95.6253 19.7921 101.244 22.644 106.498L23.1561 102.527C20.9711 104.712 18.7861 106.897 16.601 109.082C14.5294 111.154 11.9975 113.082 12.2228 116.32C12.3935 118.767 14.2713 120.305 15.8827 121.919L21.0435 127.079L26.9977 133.033C28.8932 134.93 30.7873 137.563 33.6743 137.769C36.9027 138 38.8009 135.52 40.8644 133.456L47.272 127.047L43.3007 127.559C48.5841 130.506 54.2834 132.636 60.2046 133.875L57.7983 130.715V143.257C57.7983 146.79 59.6638 149.799 63.5135 149.976C64.606 150.027 65.6986 149.976 66.7911 149.976H82.4345C83.7592 149.976 85.0961 150.03 86.4208 149.976C87.2109 149.96 87.9896 149.785 88.7108 149.462C89.432 149.139 90.081 148.674 90.6195 148.096C91.158 147.517 91.575 146.837 91.8458 146.094C92.1166 145.352 92.2357 144.563 92.1961 143.774C92.2876 139.197 92.1961 134.612 92.1961 130.035L89.7857 133.191C95.2958 131.594 100.582 129.308 105.519 126.386L101.548 125.873C103.689 128.015 105.829 130.155 107.967 132.291C109.805 134.129 111.863 137.037 114.511 137.645C118.108 138.464 120.326 135.682 122.59 133.419L128.747 127.26L134.101 121.908C135.917 120.091 137.862 118.429 137.781 115.614C137.692 112.506 134.717 110.4 132.702 108.386L126.284 101.967L126.796 105.94C129.842 100.921 132.123 95.4758 133.564 89.7844L130.404 92.1906H139.827C141.225 92.1906 142.632 92.2371 144.029 92.1906C145.568 92.1999 147.05 91.6074 148.159 90.5394C149.267 89.4715 149.915 88.0126 149.963 86.4741C149.956 85.6069 149.608 84.7772 148.995 84.164C148.382 83.5508 147.552 83.2033 146.685 83.1965C145.821 83.214 144.998 83.5649 144.387 84.1758C143.776 84.7867 143.425 85.6103 143.408 86.4741C143.475 85.7298 144.542 85.7612 143.983 85.6356C143.533 85.5898 143.079 85.5898 142.629 85.6356H130.405C129.69 85.6447 128.997 85.8835 128.427 86.3168C127.858 86.75 127.443 87.3548 127.244 88.0418C125.954 93.1842 123.899 98.1035 121.148 102.635C120.791 103.263 120.648 103.99 120.74 104.706C120.832 105.423 121.155 106.09 121.66 106.606L126.849 111.796L129.281 114.228C129.568 114.515 131.171 116.492 131.507 116.454C130.457 116.571 132.383 114.732 131.178 115.581C130.914 115.805 130.669 116.05 130.445 116.315L128.566 118.194L124.126 122.632L119.163 127.595L116.79 129.968C116.371 130.316 115.985 130.702 115.637 131.121C115.07 131.591 115.144 131.636 115.86 131.258C116.488 131.61 116.629 131.635 116.283 131.333C115.572 130.412 114.746 129.586 113.825 128.874L111.367 126.416L106.178 121.227C105.659 120.724 104.992 120.403 104.276 120.311C103.56 120.218 102.834 120.36 102.205 120.715C97.762 123.355 93.0015 125.42 88.0377 126.86C87.3518 127.061 86.7482 127.476 86.3152 128.045C85.8822 128.613 85.6426 129.306 85.6315 130.02V141.426C85.5925 142.203 85.5925 142.982 85.6315 143.759C85.6315 143.815 85.5809 144.157 85.6315 144.204C85.4457 144.034 86.2733 143.156 86.4509 143.406C86.2392 143.114 83.553 143.406 83.1938 143.406H68.972C67.3701 143.406 65.7477 143.335 64.1472 143.406C63.3046 143.445 63.7812 143.236 63.941 143.521C64.4463 144.43 64.3507 144.261 64.3507 143.423V130.7C64.3439 129.984 64.106 129.29 63.6724 128.72C63.2388 128.15 62.6327 127.736 61.9444 127.539C56.5745 126.444 51.4026 124.538 46.6069 121.885C45.9777 121.532 45.2514 121.391 44.5357 121.483C43.8201 121.575 43.1532 121.896 42.6343 122.397L37.4721 127.559L35.029 130.004L34.0812 130.95L33.535 131.497C33.6376 131.362 33.7886 131.272 33.956 131.247C34.1234 131.221 34.2942 131.262 34.4322 131.36C34.8719 131.583 34.8465 131.498 34.3557 131.105L33.7822 130.532L32.6173 129.366L30.4322 127.181L25.6812 122.437L21.5952 118.351L19.9564 116.712C19.768 116.525 18.7273 115.229 18.4911 115.247C19.5139 115.165 17.6717 117.022 18.8584 116.089C19.2653 115.727 19.6506 115.341 20.0124 114.934L22.5197 112.427L27.7856 107.155C28.2867 106.636 28.6072 105.97 28.6997 105.255C28.7922 104.539 28.6517 103.813 28.2991 103.184C25.7337 98.4201 23.8315 93.3278 22.6454 88.0486C22.4486 87.3604 22.0346 86.7542 21.4651 86.3205C20.8955 85.8869 20.2011 85.649 19.4853 85.6424H8.08217C7.42705 85.5953 6.7694 85.5953 6.11428 85.6424C5.02177 85.8063 7.22455 85.9155 6.57996 86.4222C6.90772 86.1654 6.57996 83.3781 6.57996 82.9575V68.8259C6.57996 67.2404 6.67692 65.6166 6.57996 64.0325C6.5308 63.2308 6.74794 63.7894 6.46525 63.941C5.36591 64.535 5.91899 64.3575 6.74794 64.3575H19.3337C20.0494 64.3501 20.7437 64.1119 21.3133 63.6784C21.8829 63.2449 22.2973 62.6392 22.4951 61.9512C23.645 56.6267 25.5804 51.5028 28.2377 46.7476C28.5909 46.1185 28.7318 45.3923 28.6393 44.6768C28.5468 43.9613 28.2258 43.2948 27.7242 42.7763L22.5047 37.5568L20.0124 35.0631C19.6494 34.6569 19.2637 34.2716 18.8571 33.9092C17.6635 32.9723 19.473 34.8965 18.5006 34.7395C18.8161 34.79 20.5245 32.7156 20.8113 32.4274L23.0032 30.2424L27.7488 25.4982L31.8047 21.4422L33.5541 19.6928C33.7999 19.4457 34.0703 19.2039 34.3025 18.9431C34.8064 18.3764 34.9184 18.6864 34.1482 18.7465C33.5163 18.3996 33.3757 18.3782 33.7262 18.6823L34.2724 19.2285L35.425 20.3811L37.8982 22.8543L42.9989 27.9536C43.5179 28.4544 44.1844 28.7747 44.8998 28.867C45.6151 28.9592 46.3411 28.8185 46.9702 28.4657C51.6861 25.9135 56.7254 24.0108 61.9512 22.8092C62.6393 22.6116 63.2451 22.1972 63.6787 21.6276C64.1122 21.0579 64.3503 20.3636 64.3575 19.6478V8.31296C64.4094 7.58144 64.4094 6.84715 64.3575 6.11563C64.1977 5.05453 64.1923 7.20815 63.5613 6.58951C63.676 6.70149 64.3889 6.58951 64.561 6.58951H81.3188C82.8565 6.58951 84.4297 6.68374 85.9619 6.58951C86.6939 6.54581 86.4386 6.5977 85.7516 6.17981C85.1849 5.83157 85.7817 5.58987 85.6369 5.92582C85.594 6.19726 85.594 6.47375 85.6369 6.74519V19.4538C85.6443 20.1696 85.8825 20.8639 86.316 21.4334C86.7495 22.003 87.3553 22.4175 88.0432 22.6153C93.3346 23.7651 98.4254 25.6959 103.149 28.3442C103.778 28.6978 104.504 28.8388 105.22 28.7463C105.936 28.6538 106.603 28.3326 107.121 27.8307C108.805 26.1464 110.49 24.4621 112.174 22.7778L114.609 20.3429L115.744 19.2094L116.281 18.6713C116.628 18.3691 116.485 18.3927 115.852 18.7424C115.082 18.6891 115.188 18.3723 115.695 18.9417C115.925 19.2026 116.197 19.4443 116.443 19.6915L118.192 21.4409L122.44 25.6866L127.195 30.4418L129.578 32.8262L130.74 33.987L131.121 34.368C131.589 34.9361 131.634 34.8619 131.258 34.1454L131.509 33.5473L130.781 34.2738L129.628 35.4278L127.37 37.6852L122.026 43.0289C121.524 43.5474 121.203 44.2141 121.111 44.9296C121.019 45.6452 121.16 46.3714 121.514 47.0002C124.155 51.687 126.126 56.7217 127.367 61.9567C127.564 62.6445 127.979 63.2502 128.548 63.6837C129.117 64.1173 129.811 64.3555 130.527 64.363H142.652C143.099 64.4081 143.549 64.4081 143.996 64.363C144.9 64.1595 142.684 64.0734 143.419 63.5272C143.272 63.6351 143.419 64.9966 143.419 65.166V86.4891C143.417 90.6993 149.972 90.7062 149.972 86.4809Z" fill="#211715"/>
</svg>
