<svg width="151" height="150" viewBox="0 0 151 150" fill="none" xmlns="http://www.w3.org/2000/svg">
<path d="M148.012 85.4801V126.165L112.478 146.671L111.728 145.378V106.418C123.819 99.4292 135.913 92.45 148.012 85.4801Z" fill="#3D8DCC"/>
<path d="M111.728 106.418C99.6375 99.4294 87.5468 92.449 75.4561 85.4767C75.71 85.3316 75.9518 85.1865 76.2057 85.0414C88.0425 78.198 99.8833 71.3587 111.728 64.5234C123.819 71.5119 135.914 78.4963 148.012 85.4767C135.922 92.453 123.827 99.4334 111.728 106.418Z" fill="white"/>
<path d="M111.728 145.374L112.478 146.668C112.224 146.813 111.982 146.958 111.728 147.103C99.6375 140.127 87.5468 133.146 75.4561 126.162V85.4801C87.5468 92.4564 99.6375 99.4368 111.728 106.421V145.374Z" fill="white"/>
<path d="M111.728 23.8381V64.5234C99.8914 71.3668 88.0506 78.2061 76.2057 85.0414L75.4561 83.7356V44.7914C87.5468 37.8029 99.6375 30.8185 111.728 23.8381Z" fill="white"/>
<path d="M75.4557 44.7913C63.6552 37.9722 51.8506 31.153 40.042 24.3338C39.7519 24.1646 39.4738 24.0074 39.1836 23.8381C51.2743 16.8618 63.365 9.88138 75.4557 2.89697C87.5465 9.87332 99.6372 16.8537 111.728 23.8381C99.6372 30.8265 87.5465 37.811 75.4557 44.7913Z" fill="#3D8DCC"/>
<path d="M75.4557 83.7356L76.2054 85.0414C75.9515 85.1865 75.7096 85.3316 75.4557 85.4767C63.365 78.4882 51.2743 71.5038 39.1836 64.5234V23.8381C50.9841 30.6573 63.6552 37.9722 75.4557 44.7914V83.7356Z" fill="white"/>
<path d="M75.4557 85.4801V126.165C63.6189 132.997 51.7781 139.832 39.9332 146.671L39.1836 145.378V106.418C51.2743 99.4292 63.365 92.45 75.4557 85.4801Z" fill="#3D8DCC"/>
<path d="M39.1837 106.418C27.371 99.5986 15.5624 92.7835 3.75785 85.9724C3.46768 85.8031 3.18959 85.6459 2.89941 85.4767C14.9901 78.4882 27.0849 71.5038 39.1837 64.5234C51.2744 71.5119 63.3651 78.4963 75.4558 85.4767C63.3651 92.453 51.2744 99.4334 39.1837 106.418Z" fill="white"/>
<path d="M39.1837 145.374L39.9333 146.668C39.6794 146.813 39.4376 146.958 39.1837 147.103C27.0808 140.127 14.9861 133.146 2.89941 126.162V85.4801C14.7 92.2872 27.371 99.6021 39.1837 106.421V145.374Z" fill="white"/>
<path d="M5.80354 125.781V87.4535C5.80354 83.7199 0 83.7138 0 87.4535V125.781C0 129.516 5.80354 129.522 5.80354 125.781Z" fill="#211715"/>
<path d="M36.2725 106.192V145.372C36.2725 149.105 42.076 149.111 42.076 145.372V106.192C42.076 102.458 36.2725 102.452 36.2725 106.192Z" fill="#211715"/>
<path d="M72.5537 85.4718V126.158C72.5537 129.893 78.3573 129.899 78.3573 126.158V85.4718C78.3573 81.7382 72.5537 81.7321 72.5537 85.4718Z" fill="#211715"/>
<path d="M1.43735 128.664L37.7095 149.608C38.1548 149.865 38.6597 150 39.1737 150C39.6877 150 40.1926 149.865 40.6379 149.608L76.91 128.664C80.1443 126.797 77.2244 121.78 73.9816 123.653L37.7095 144.597H40.6379L4.36573 123.653C1.12541 121.781 -1.80054 126.797 1.43735 128.664Z" fill="#211715"/>
<path d="M1.43735 87.9782L37.7095 108.923C38.155 109.179 38.6598 109.314 39.1737 109.314C39.6875 109.314 40.1924 109.179 40.6379 108.923L76.91 87.9782C80.1443 86.1114 77.2244 81.0938 73.9816 82.9666L37.7095 103.911H40.6379L4.36573 82.9666C1.12541 81.0962 -1.80054 86.1102 1.43735 87.9782Z" fill="#211715"/>
<path d="M4.36562 87.9782L40.6378 67.0334H37.7142L73.9864 87.9782C77.2267 89.8486 80.1526 84.8346 76.9147 82.9666L40.6426 62.0218C40.1971 61.7657 39.6923 61.631 39.1784 61.631C38.6646 61.631 38.1597 61.7657 37.7142 62.0218L1.44208 82.9666C-1.79218 84.8334 1.12773 89.851 4.37046 87.9782H4.36562Z" fill="#211715"/>
<path d="M108.832 106.192V145.372C108.832 149.105 114.635 149.111 114.635 145.372V106.192C114.635 102.458 108.832 102.452 108.832 106.192Z" fill="#211715"/>
<path d="M145.108 85.4718V126.158C145.108 129.893 150.912 129.899 150.912 126.158V85.4718C150.912 81.7382 145.108 81.7321 145.108 85.4718Z" fill="#211715"/>
<path d="M73.995 128.664L110.267 149.608C110.712 149.865 111.217 150 111.731 150C112.245 150 112.75 149.865 113.195 149.608L149.468 128.664C152.702 126.797 149.782 121.78 146.539 123.653L110.267 144.597H113.195L76.9233 123.653C73.683 121.781 70.7571 126.797 73.995 128.664Z" fill="#211715"/>
<path d="M73.995 87.9782L110.267 108.923C110.713 109.179 111.217 109.314 111.731 109.314C112.245 109.314 112.75 109.179 113.195 108.923L149.468 87.9782C152.702 86.1114 149.782 81.0938 146.539 82.9666L110.267 103.911H113.195L76.9233 82.9666C73.683 81.0962 70.7571 86.1102 73.995 87.9782Z" fill="#211715"/>
<path d="M76.92 87.9782L113.192 67.0334H110.267L146.54 87.9782C149.78 89.8486 152.706 84.8346 149.468 82.9666L113.196 62.0218C112.75 61.7657 112.245 61.631 111.732 61.631C111.218 61.631 110.713 61.7657 110.267 62.0218L73.9953 82.9666C70.761 84.8334 73.6809 89.851 76.9237 87.9782H76.92Z" fill="#211715"/>
<path d="M42.076 64.151V25.8234C42.076 22.0886 36.2725 22.0825 36.2725 25.8234V64.151C36.2725 67.8858 42.076 67.8919 42.076 64.151Z" fill="#211715"/>
<path d="M72.5537 44.5614V83.7354C72.5537 87.4702 78.3573 87.4763 78.3573 83.7354V44.5614C78.3573 40.8266 72.5537 40.8206 72.5537 44.5614Z" fill="#211715"/>
<path d="M108.832 23.8417V64.5282C108.832 68.2618 114.635 68.2679 114.635 64.5282V23.8417C114.635 20.1069 108.832 20.1008 108.832 23.8417Z" fill="#211715"/>
<path d="M37.715 26.3469L73.9872 47.2916C74.4325 47.5483 74.9374 47.6834 75.4514 47.6834C75.9653 47.6834 76.4703 47.5483 76.9155 47.2916L113.188 26.3469C116.422 24.4801 113.502 19.4636 110.259 21.3365L73.9956 42.28H76.924L40.6519 21.3365C37.4115 19.4648 34.4856 24.4801 37.7235 26.3469H37.715Z" fill="#211715"/>
<path d="M40.6432 26.3469L76.9154 5.40216H73.9955L110.268 26.3469C113.508 28.2186 116.434 23.2033 113.196 21.3365L76.9239 0.391768C76.4786 0.135104 75.9736 0 75.4597 0C74.9457 0 74.4408 0.135104 73.9955 0.391768L37.7233 21.3365C34.4891 23.2033 37.409 28.2198 40.6517 26.3469H40.6432Z" fill="#211715"/>
</svg>
